<?xml version="1.0" encoding="UTF-8"?>
<svg id="Capa_2" data-name="Capa 2" xmlns="http://www.w3.org/2000/svg" xmlns:xlink="http://www.w3.org/1999/xlink" viewBox="0 0 357.38 708.04">
  <defs>
    <style>
      .cls-1 {
        fill: #807b75;
      }

      .cls-2 {
        fill: none;
      }

      .cls-3 {
        clip-path: url(#clippath-1);
      }

      .cls-4 {
        fill: #22211c;
      }

      .cls-5 {
        clip-path: url(#clippath);
      }
    </style>
    <clipPath id="clippath">
      <rect class="cls-2" y="16.19" width="303.34" height="653.6"/>
    </clipPath>
    <clipPath id="clippath-1">
      <polygon class="cls-2" points="68.09 662.66 292.87 503.67 292.7 209.87 67.92 472.99 68.09 662.66"/>
    </clipPath>
  </defs>
  <g id="Capa_1-2" data-name="Capa 1">
    <g id="layer-05-barrera">
      <g class="cls-5">
        <g class="cls-3">
          <g>
            <path class="cls-1" d="M357.38,50.29c-.87-.14-1.8.78-1.95,1.78-.24,1.67,1.47-.79,1.95-.59v19.01c-1.01-.13-1.97,1.1-2.27,2.17l2.27-.99v18.61c-2.37.57-3.07,3.86,0,1.19v40.79c-.59-.49-2.27-3.6-2.27-4.16,0-.6,1.41-2.09,1.6-3.58.29-2.29.77-8.38-2.15-6.99-2.4,1.14-5.25,5.23-7.85,6.43v17.42c.95-.13,3.25-2.05,3.49-3.05l.06-13.7c.75-.34,1.96-2.01,2.44-2.26.66-.34.45.55.48.98.05.88.13,2.75-.06,3.5-.37,1.48-2.5.77-1.73,4.24.16.7,1.83,4.62,2.27,4.66l3.72-3.09v22.57c-1.03.29-2.11,1.21-2.27,2.57l2.27-1.38v18.61c-.87-.14-1.8.78-1.95,1.78-.24,1.67,1.47-.79,1.95-.59v18.61l-1.94,2.17,1.94-.59v41.18c-.6-.65-2.16-3.49-2.21-4.23-.04-.52,1.17-1.88,1.41-2.88.37-1.53.74-6.98-.5-7.76-1.61-1.01-7.48,5.91-9.37,6.55v17.82c.78-.68,3.2-2.2,3.42-3.13.63-2.76-.41-12.93.21-14.21.08-.17,2.57-2,2.84-1.66-.13,1.23.22,2.95-.06,4.08-.27,1.07-2.16,1.36-2.12,3.17.02.68,1.93,5.06,2.33,5.45.8.77,3.17-2.45,4.05-2.81v22.18c-2.4.76-3,3.86,0,1.19v18.61c-1.03.29-2.11,1.21-2.27,2.57l2.27-1.38v19.01c-2.46.72-2.89,3.98,0,1.19v63.76c-2.42.54-2.98,3.94,0,1.19v18.61c-2.42.54-2.98,3.94,0,1.19v19.01l-1.94,1.78,1.94-.99v50.29l-289.42,251.85h-.32v-70.49l1.94-2.17-1.94.99v-19.01c2.3-.15,2.24-3.62,0-.79v-63.76c.92-.27,1.87-.89,1.94-2.17l-1.94.99v-19.01c2.4-.76,3-3.86,0-1.19v-19.01l1.94-1.78-1.94.99v-64.15l1.94-1.78-1.94.59v-19.01l1.94-1.78-1.94.99v-18.61c.92-.27,1.87-.89,1.94-2.17l-1.94.99v-83.95l1.94-1.78-1.94.99v-19.4c2.15-.42,2.47-3.09,0-1.19v-49.5L357.06,0h.32v50.29ZM346.71,18.81v17.23c.83-.61,3.18-2.12,3.42-3.13.65-2.82-.5-12.64.47-14.09.2-.3,2.35-2.1,2.58-1.79-.12,1.25.21,2.9-.07,4.07-.48,2-2.61.75-1.66,4.57.09.38,1.57,4.27,1.74,4.41.46.38,3.88-2.5,3.87-3.34s-1.81-3.11-1.88-4.03c-.06-.68,1.35-2.77,1.52-4.33.23-2.02.68-6.81-1.72-6.5-.66.09-8.14,6.34-8.28,6.93ZM344.77,20.59c-.77.36-3.32,2.33-3.5,3.04-.16.64-.35,4.06-.4,5.06-.19,4.13,1.44,10.29-2.9,11.3v-13.46c-.76.18-3.32,2.36-3.5,3.04.09,2.04-.44,14.81.24,15.39,1.45,1.24,6.11-3.28,7.29-4.59,1.11-1.24,2.76-3.88,2.76-5.73v-14.06ZM322.46,57.02l7.6-6.34c1.18-1.59,2.23-3.12,2.43-5.34.15-1.68.23-10.17-.07-11.4-.08-.34-.33-.74-.59-.89-1.62-.99-7.76,5.6-9.37,6.75v17.23ZM315.99,47.92h-8.41c-1.97,4.7-5.31,8.74-7.45,13.25-.15.31-.65.69-.14,1.01,1.39-.83,3.62.02,4.79-.47.77-.33,2.11-4.37,2.8-4.88.79-.59,2.22.15,3.23-.41,1.23-.67,4.1-6.94,5.18-8.51ZM299.18,74.05h8.57l8.89-14.85v-8.91c-1.7,1.09-8.16,14.26-8.89,14.26h-8.41c-1.06,0-.2,8.28-.16,9.5ZM325.69,75.24c-1.35-.07-.78,1.72-1.14,2.76-.39,1.13-2.29,1.5-2.09,3.17l2.26-1.58v1.98c1.36.09.77-1.73,1.14-2.77s1.92-1.23,2.1-2.57c.23-1.67-1.89.88-2.27.99v-1.98ZM325.69,95.44c-1.57-.08-.66,2.29-1.03,3.09-.17.38-2.55,1.21-2.2,2.85l2.26-1.58v1.98c1.36.09.77-1.73,1.14-2.77s1.92-1.23,2.1-2.57c.25-1.81-2.07,1.32-2.27.99v-1.98ZM299.82,97.81s-.85-.05-.94.03c-.3.23-.26,2.51-.51,3.15-.2.51-2.52,1.78-1.78,2.77.29.38,1.81-1.4,1.94-1.19v1.98c1.65-.05,1.07-2.05,1.46-3.16.33-.93,1.61-1.03,1.78-2.18.23-1.59-1.72.29-1.94.59-.07-.44.09-1.87,0-1.98ZM247.44,113.25v-7.92c-.53-.07-3.56,2.7-3.56,2.97v17.23c.58-.42,3.56-2.85,3.56-3.37v-8.12c.84.71,2.36,4.8,3.13,5.11s3.62-2.05,3.69-2.94c.11-1.31-3.23-4.75-3.25-5.92-.02-1.31,3.7-10.27,3.23-10.9-1.13.51-2.88,1.8-3.51,3.03l-3.28,10.83ZM235.47,128.7v-8.91c0-.65,2.29-3.69,3.23-2.97-1.07,3.45,3.37-.6,3.49-.87.24-.51.08-4.32-.3-4.62-1.36-1.03-6.12,3.45-7.22,4.71-2.88,3.29-3.03,9.05-2.77,13.67.23,4.14.39,5.6,3.68,3.28,3.47-2.46,7.31-6.3,6.69-11.81-.16-.23-3.39,2.24-3.49,2.45-.31.68.24,2.26-.49,3.37-.29.44-2.46,2.14-2.81,1.7ZM325.69,115.24c-1.54-.05-.65,2.16-1.13,3.17-.38.78-2.37,1.04-2.1,2.77l2.1-1.19.17,1.59c1.36.09.76-1.73,1.13-2.77s1.92-1.23,2.1-2.57c.25-1.81-2.07,1.32-2.27.99v-1.98ZM220.32,144.48c1.23.94,5.5-2.81,6.58-3.91,1.68-1.71,3.15-3.75,3.4-6.52.15-1.66.17-10.51-.24-11.59-.85-2.25-3.59.64-4.71,1.56-2.58,2.1-5.11,4.34-5.41,8.42-.11,1.54-.12,11.66.38,12.04ZM281.07,126.32c-1.85.11-.87,2.01-1.12,2.76-.22.68-2.89,2.15-2.11,3.17.29.38,1.81-1.4,1.94-1.19v1.98c1.87-.02.99-2.67,1.36-3.49.19-.41,1.68-.57,1.88-1.86.26-1.68-1.87.71-1.94.59v-1.98ZM344.77,126.32c-1.36.29-2.45,1.74-3.56,2.66l-.39,14.09c-.62,1.18-1.61,2.36-2.84,2.26v-13.07c-.66-.19-3.38,2.21-3.5,2.64.26,4.4-.53,9.96-.07,14.21.22,2.06,1.08,1.97,2.41,1.32,2.4-1.16,7.96-6.63,7.96-10.05v-14.06ZM212.51,135.63v16.83c1.13-.34,6.2-4.6,6.41-5.42.14-.55.13-1.73.06-2.31-.25-1.98-2.41,1.71-3.23,1.39l.32-13.46c-.22-.31-3.44,2.45-3.56,2.97ZM200.55,145.92v17.23c.68-.47,3.31-2.34,3.5-3.03.67-2.4-.31-9.85.04-13.02.19-1.71,2.89-3.78,3.23-2.3.07.32-.32,3.37-.46,3.71-.22.53-.95.73-1.28,1.21-1.38,2,1.27,5.44,1.77,7.5.23.21,3.76-2.85,3.84-3.42.09-.68-1.89-3.18-1.89-4.3,0-.91.85-1.71,1.11-2.58.58-1.94,1.38-8.78-1.21-8.25-.86.18-8.51,6.64-8.65,7.26ZM322.46,162.36c.53.15.75-.13,1.14-.39,1.68-1.1,6.86-5.95,7.86-7.8.24-.44.78-1.64.87-2.1.32-1.52.4-10.88.15-12.49-.07-.48-.11-.76-.53-.94-2.19-.9-7.61,5.23-9.49,6.88v16.83ZM198.61,147.71c-.7.17-3.19,2.26-3.4,2.77-.89,2.21.47,10.67-.22,13.58-.22.92-2.21,2.95-3.17,2.66v-13.07c-1.03.44-3.35,2.06-3.55,3.38-.32,2.06-.22,10.77-.01,13.07.41,4.5,4.5.29,6.12-1.23,1.21-1.14,4.23-4.39,4.23-6.3v-14.85ZM240.64,148.9c-1.76.1-1.04,2.18-1.34,3.3-.15.54-2.64,2.03-1.89,3.03.29.38,1.81-1.4,1.94-1.19v1.98c1.87-.03.99-2.64,1.37-3.48.11-.25,1.81-1.21,1.88-1.47.57-2.2-1.77.04-1.95-.2v-1.98ZM315.99,153.25h-7.92c-.69,0-6.91,12.31-8.24,13.67-.08.81.03.52.48.59,1.29.21,3.88.24,4.86-.79.72-.75,2.19-4.47,2.48-4.68.66-.47,2.75.31,3.42-.17s4.1-7.34,4.92-8.62ZM316.96,155.63c-.55-.15-.65.22-.96.6-2.89,3.6-5.41,9.86-8.09,13.87-2.93-.21-6.41-.78-9.05.77v8.32c0,.14.47.67.73.52l8.32-.52c1.03-1.93,9.06-14.49,9.06-15.44v-8.12ZM176.29,184.14l7.59-6.35c3.32-3.39,3.13-10.38,2.77-15.25-.05-.72-.11-1.96-.66-2.37-1.91-1.41-7.9,5.47-9.71,6.74v17.23ZM240.64,169.49c-1.7,0-1.02,2.24-1.45,3.17-.16.34-2.52,1.78-1.78,2.77.29.38,1.81-1.4,1.94-1.19v1.98c1.87-.03.99-2.64,1.37-3.48.11-.25,1.81-1.21,1.88-1.47.53-1.96-1.52-.5-1.94.2v-1.98ZM169.82,174.63h-7.92c-.68,0-6.65,12.25-7.92,13.67-.09.8.03.51.47.59.94.15,3.92.18,4.6-.51.64-.65,2.08-4.71,2.42-4.95.73-.52,2.83.47,3.68-.45l4.67-8.34ZM211.54,174.63s-.84-.05-.94.03c-.32.24-.23,2.51-.51,3.14-.15.34-2.52,1.78-1.77,2.77.4.53,1.26-1.35,1.77-1.19l.17,1.59c2.11.03.86-1.93,1.46-3.17.45-.94,2.57-.86,1.62-2.77l-1.78,1.58c-.07-.44.09-1.87,0-1.98ZM153.01,200.77h8.89c.82-2.12,8.89-14.31,8.89-15.25v-8.91c-3.19,4.47-5.89,9.59-8.73,14.45l-9.05.6v9.11ZM325.7,182.16v-1.98c-1.66.37-.6,1.83-1.13,3.17-.17.43-2.7,2.08-2.1,2.76s1.91-1.67,2.26-1.18v1.78c1.45.65.7-2.08,1.13-2.97.23-.47,1.79-1.31,2.1-2.18.57-1.65-2.07.87-2.26.6ZM240.64,189.29c-1.67.03-1.04,2.12-1.45,3.17-.2.51-2.53,1.77-1.78,2.77.29.38,1.81-1.4,1.94-1.19v1.98c1.87-.02.99-2.67,1.36-3.49.19-.41,1.69-.58,1.88-1.86.23-1.59-1.72.29-1.94.59v-1.98ZM211.54,194.83c-1.7,0-1.02,2.24-1.45,3.17-.13.28-2.35,1.71-1.78,2.37.43.49,2.17-1.34,2.26-1.19v1.98c1.54.06.65-2.15,1.14-3.16.45-.94,2.57-.86,1.62-2.77l-1.78,1.18v-1.58ZM325.69,199.98c-1.54-.05-.65,2.16-1.13,3.17-.38.78-2.37,1.04-2.1,2.77l2.26-1.18c-.02,1.37-.29,1.81.97,1.58-1.01-3.13,2.06-3.82,2.27-5.34.25-1.81-2.07,1.32-2.27.99v-1.98ZM299.82,202.75c-1.64.05-1.06,2.05-1.46,3.16-.24.67-2.49,1.84-1.77,2.77.34.45,1.85-1.33,1.94-1.19v1.98c1.67-.03,1.05-2.12,1.45-3.17.33-.85,1.6-.83,1.79-2.17.23-1.67-1.8.82-1.94.59v-1.98ZM178.55,203.15c-1.35-.07-.78,1.72-1.14,2.76-.27.8-2.81,2.24-2.09,3.17.33.43,1.55-1.36,2.1-1.19l.17,1.59c1.36.09.76-1.73,1.13-2.77.33-.93,1.6-1.02,1.78-2.18.26-1.66-1.81.81-1.94.59v-1.98ZM243.88,230.87c.88-.31,3.26-2.11,3.49-3.05.31-1.29-.68-8.08.23-8.03.38.02,2.45,4.89,3.28,5.08.37.09,3.57-2.64,3.65-2.96.29-1.17-3.49-4.74-3.47-6.21.03-1.59,3.58-10.32,3.16-10.96-1.01.82-2.86,1.78-3.51,3.02-1.03,1.96-2.18,7.9-3.04,10.54-.14.42-.09,1.18-.56,1.09v-6.93c0-.2.52-.83.32-1.38-.42-.49-3.56,2.29-3.56,2.57v17.23ZM211.54,214.63c-1.67.03-1.04,2.12-1.45,3.17-.2.51-2.53,1.77-1.78,2.77.29.38,1.81-1.4,1.94-1.19v1.98c1.87-.03.99-2.64,1.37-3.48.11-.25,1.81-1.2,1.88-1.47.64-2.36-1.87.33-1.94.2v-1.98ZM235.47,233.84c-.31-1.35,0-6.81,0-8.71,0-.79,2.33-3.31,3.23-2.97l.16,1.98c.67-.79,3.34-2.53,3.42-3.35.12-1.15.2-3.75-.9-4.12-1.58-.52-7.59,5.52-8.45,7.33-1.12,2.34-1.31,10.59-.99,13.37.27,2.31.97,2.76,2.79,1.91.69-.33,5.02-4.27,5.59-5.04,1.5-2.02,2.13-5.02,1.94-7.72-.2-.28-3.05,2.12-3.26,2.54-.44.9-.21,1.74-.44,2.62-.3,1.11-2.73,3.72-3.09,2.16ZM325.69,220.18c-1.36-.07-.77,1.74-1.13,2.77-.24.67-2.49,1.84-1.77,2.77.34.45,1.85-1.33,1.94-1.19v1.98c1.36.09.77-1.73,1.14-2.77s1.92-1.23,2.1-2.57c.23-1.67-1.89.88-2.27.99v-1.98ZM178.55,223.34c-1.35-.07-.78,1.72-1.14,2.76-.25.73-2.8,2.26-2.09,3.17.36.47,1.6-1.23,2.1-1.19l.17,1.59c1.37.1.75-1.82,1.13-2.78.32-.82,1.6-.83,1.79-2.17.23-1.68-1.87.71-1.94.59v-1.98ZM110.64,224.14l-3.7,3.19c-.44.86-2.95,9.59-3.04,10.57-.19,2.08,2.3,4.57,3.04,6.46.48.09,3.58-2.69,3.67-3.06.34-1.39-3.12-4.77-3.22-5.89-.13-1.58,3.59-10.81,3.24-11.27ZM153.65,224.92s-.85-.05-.94.03c-.3.23-.26,2.51-.51,3.15-.2.51-2.52,1.78-1.78,2.77.29.38,1.81-1.4,1.94-1.19v1.98c1.87-.02.99-2.66,1.36-3.48.18-.39,4.54-4.3-.06-1.27-.07-.44.09-1.87,0-1.98ZM229.89,227.4c-.64-.95-1.89.03-2.55.45-1.77,1.13-6.01,4.96-6.8,7.11-1.06,2.86-1.07,10.72-.58,13.92s3.54.21,4.62-.66c2.95-2.36,5.4-4.6,5.73-9.22.12-1.67.15-10.76-.41-11.6ZM103.53,230.47c-.67-.23-3.56,2.59-3.56,2.97v16.83c1.36-.1,2.24-1.96,3.56-2.38v-17.42ZM281.07,230.86c-.06-.07-.71.05-.97,0-.05.8.13,1.73-.06,2.5s-2.64,2.03-1.88,3.04c.33.44,1.09-1.07,1.61-.79-.39,1.37.49,2.37,1.14,1.2.4-.73-.07-2.06.22-2.7.12-.25,1.81-1.21,1.88-1.47.57-2.2-1.77.04-1.95-.2-.06-.38.09-1.47,0-1.59ZM344.45,246.9c.59-4.39-.44-10.64,0-15.25-.63.76-3.08,2.09-3.34,2.87-1.02,2.99.5,10.64-.28,13.88-.21.88-2.02,2.41-2.84,2.26v-13.07c-1.35.28-2.36,1.86-3.56,2.65.37,2.57-.59,14,.3,15.4,1.02,1.61,3.64-1.02,4.66-1.89,1.57-1.34,4.76-4.54,5.07-6.86ZM91.89,253.83v-9.7c0-.53,3.65-4.76,3.39-.6,1.05-1.1,3.33-2.29,3.43-4.15.05-.94-.42-3.08-1.22-3.32-1.41-.43-7.69,5.81-8.45,7.74-.92,2.35-1,11.04-.72,13.82.35,3.49,3.38.35,4.65-.69,3.4-2.77,5.98-5.5,5.72-11.01-.17-.23-3.39,2.24-3.49,2.45-.32.69.12,2.39-.71,3.69-.25.4-2.37,2.09-2.59,1.77ZM216.07,238.39c-.65-.33-3.56,2.31-3.56,2.57v17.23l6.3-5.15.16-3.56-2.91,1.98v-13.07ZM178.55,243.14c-1.54-.05-.65,2.16-1.13,3.17-.22.46-2.91,1.72-2.1,2.77.36.47,1.6-1.23,2.1-1.19l.17,1.59c1.36.09.76-1.73,1.13-2.77.33-.93,1.6-1.02,1.78-2.18.26-1.66-1.81.81-1.94.59v-1.98ZM322.46,267.69c.53.15.75-.13,1.14-.39,2.48-1.62,8.42-7.05,8.86-10.53.18-1.42.22-10.68-.05-11.78-.29-1.21-1.35-1.23-2.21-.89-2,.78-5.79,5.21-7.75,6.75v16.83ZM200.55,251.26v17.23c.88-.31,3.26-2.11,3.49-3.05.64-2.69-.63-12.67.39-14.17.08-.12,1.99-1.72,2.11-1.78.61-.29.77,1.46.77,1.82.02,3.47-1.07,2.73-1.93,4.29s1.38,5.48,2.17,6.94c.44.16,3.56-2.49,3.64-3,.15-.94-1.85-3.02-1.91-4.34-.05-1.13.82-1.52,1.15-2.53.59-1.81,1.36-8.84-1.29-8.35-3.09,1.49-5.71,4.77-8.58,6.96ZM84.37,246.8c-1.1.37-6.26,5.21-6.98,6.51-1.65,2.99-1.75,11.02-1.36,14.6.21,1.89,1.13,2.11,2.51,1.45,1.77-.84,6.91-5.96,7.54-8.18.57-2.03,1.18-13.29,0-14.3-.4-.35-1.24-.24-1.72-.08ZM135.22,253.04c-1.86.02-.98,2.67-1.36,3.49-.09.19-2.68,1.38-1.87,2.45.29.38,1.81-1.4,1.94-1.19v1.98c1.66.03,1.03-2.76,1.36-3.48.18-.38,1.62-.56,1.87-1.87.31-1.68-1.86.72-1.93.6v-1.98ZM198.61,253.44c-.66-.19-3.38,2.21-3.5,2.64-.76,2.72.49,9.94-.12,13.31-.25,1.39-1.99,3.08-3.17,3.05v-13.46l-3.5,3.03c.19,2.45-.6,14.28.35,15.48.53.68,1.35.29,1.93,0,2.18-1.1,8.01-6.49,8.01-9.6v-14.45ZM240.64,254.23c-1.86.02-.98,2.67-1.36,3.49-.08.19-2.69,1.39-1.87,2.45.34.45,1.85-1.33,1.94-1.19v1.98c1.67-.03,1.05-2.12,1.45-3.17.33-.85,1.6-.83,1.79-2.17.23-1.67-1.8.82-1.94.59v-1.98ZM72.16,257.79c-.67-.23-3.56,2.59-3.56,2.97v16.83c1-.43,6.03-4.44,6.31-5.15.39-.98.07-2.48.16-3.57l-2.91,2.38v-13.46ZM315.99,258.59h-8.41c-2.23,4.77-5.1,9.2-7.76,13.67-.08.81.03.52.48.59.89.14,3.25.14,4.07-.18,1.64-.63,2.33-4.56,3.22-5.17s2.8.2,3.49-.29,4.09-7.34,4.92-8.62ZM298.85,275.61v8.91c0,.14.47.67.73.52l8.33-.51c.84-2.02,8.73-13.75,8.73-14.66v-8.91c-3.27,4.46-5.89,9.59-8.73,14.46l-9.05.19ZM176.29,272.64v16.83c2.22-1.3,5.07-3.57,6.95-5.55,4.1-4.34,3.75-8.94,3.42-15.25-.1-1.86,0-3.63-1.96-3.19-1.03.23-8.21,6.32-8.4,7.17ZM96.74,276.01v-1.98c-1.66.37-.61,1.82-1.13,3.17-.28.71-2.9,1.75-2.1,2.77.4.51,2.17-1.33,2.26-1.19v1.78c1.46.65.7-2.08,1.13-2.97.23-.47,1.79-1.31,2.1-2.18.57-1.65-2.07.87-2.26.6ZM240.64,274.03c-1.88-.3-1.03,1.7-1.34,2.91-.14.54-2.64,2.03-1.89,3.03.29.38,1.81-1.4,1.94-1.19v1.98c1.87-.02.99-2.67,1.36-3.49.19-.41,1.69-.58,1.88-1.86.23-1.59-1.72.29-1.94.59v-1.98ZM211.54,279.58c-1.64.05-1.06,2.05-1.46,3.16-.24.67-2.49,1.84-1.77,2.77.34.45,1.85-1.33,1.94-1.19v1.98c1.67-.03,1.05-2.12,1.45-3.17.33-.85,1.6-.83,1.79-2.17.23-1.67-1.8.82-1.94.59v-1.98ZM169.82,280.37h-7.92c-2.03,4.16-5.87,8.67-7.62,12.84-.16.38-.6,1.13-.14,1.42,1.33-.88,3.2,0,4.46-.48,1.03-.39,2.37-4.71,3.14-5.29.44-.33,2.32.72,3.16.13.69-.49,4.1-7.34,4.92-8.62ZM170.79,282.74c-.55-.15-.65.22-.96.6-1.99,2.48-4.57,7.7-6.41,10.76-.51.85-1.14,1.86-1.35,2.9h-9.05v9.5h8.57c.99-1.98,9.22-14.3,9.22-15.25v-8.51ZM325.69,285.12c-1.54-.05-.65,2.16-1.13,3.17-.38.78-2.37,1.04-2.1,2.77l2.1-1.19.17,1.59c1.37.1.75-1.82,1.13-2.78.22-.56,4.94-4.63-.15-1.58v-1.98ZM240.64,293.83c-1.76.1-1.04,2.18-1.34,3.3s-2.31.96-1.89,2.64l1.94-.79c-.4,1.37.5,2.37,1.14,1.2.38-.7-.07-1.98.31-2.78.31-.64,1.58-.79,1.78-2.17.26-1.8-1.62,1.05-1.94.59v-1.98ZM96.74,294.62c-1.39-.08-.75,1.8-1.13,2.78-.25.65-5.11,4.73.15,1.58v1.98c1.54.07.65-2.16,1.13-3.17.34-.71,2.41-1.3,1.62-2.77l-1.78,1.18v-1.58ZM211.54,299.37s-.84-.05-.94.03c-.32.24-.23,2.51-.51,3.14-.15.34-2.52,1.78-1.77,2.77.29.38,1.81-1.4,1.94-1.19v1.98c1.87-.02.99-2.65,1.37-3.48.2-.44,1.95-1,2.19-2.27.31-1.64-1.95.71-2.25,1-.07-.44.09-1.87,0-1.98ZM325.69,305.32c-1.39-.08-.75,1.8-1.13,2.78-.25.65-5.11,4.73.15,1.58v1.98c1.54.06.65-2.16,1.13-3.17.34-.71,1.87-.88,2.1-2.19.32-1.84-2.03.92-2.26.6v-1.58ZM299.82,307.69c-1.64.05-1.06,2.05-1.46,3.16-.24.67-2.49,1.84-1.77,2.77.34.45,1.85-1.33,1.94-1.19v1.98c1.67-.03,1.05-2.12,1.45-3.17.33-.85,1.6-.83,1.79-2.17.23-1.68-1.87.71-1.94.59v-1.98ZM178.55,308.48c-.06-.07-.71.05-.97,0,.74,3.45-1.59,3.11-2.26,5.54l1.94-.79c-.4,1.37.5,2.37,1.14,1.2.38-.7-.07-1.98.31-2.78.31-.64,1.58-.79,1.78-2.17.26-1.8-1.63,1.05-1.94.59-.06-.38.09-1.47,0-1.59ZM247.44,325.11l3.44,5.1c.52.12,3.69-2.63,3.7-3.31,0-.88-3.53-4.54-3.51-5.87.03-1.67,3.63-10.24,3.16-10.96l-3.51,3.02-3.27,10.84v-7.52c-.87.02-2.71,1.41-3.24,2.17-1.34,1.92-.34,4.25-.3,6.33.06,3.82-.32,7.56-.01,11.3.33.46,3.56-2.68,3.56-2.97v-8.12ZM96.74,314.42c-.06-.07-.71.05-.97,0,.4,2.96-.37,2.7-1.62,4.15-1.84,2.14.57,1.32,1.62.21v1.98c1.54.07.65-2.16,1.13-3.17.23-.47,1.79-1.31,2.1-2.18.57-1.65-2.07.87-2.26.6-.06-.38.09-1.47,0-1.59ZM211.54,319.57s-.86-.04-.95.02c-.31.23-.23,2.52-.51,3.15-.12.27-2.35,1.72-1.77,2.38.44.5,1.67-1.15,1.94-.79.07.4-.18,1.6.17,1.59,1.44-.04.91-2.36,1.29-3.17.33-.7,2.41-1.3,1.62-2.77l-1.78,1.18c-.06-.38.09-1.47,0-1.59ZM235.47,339.17c-.31-1.32,0-6.83,0-8.71,0-.73,2.18-2.75,2.75-2.96,1.04-.38-.06,2.44.96,1.97.16-.07,2.68-2.37,2.78-2.54.47-.8.41-4.16-.07-4.53-1.77-1.36-8.3,5.33-9.14,7.51-1.04,2.7-1.07,8.64-.85,11.66.2,2.84.43,4.29,3.03,2.89.77-.42,4.79-4.08,5.38-4.89,1.52-2.05,2.2-5,1.94-7.72-.2-.28-3.05,2.12-3.26,2.54-.44.91-.21,1.75-.44,2.62-.27,1-2.74,3.66-3.09,2.16ZM325.69,325.12c-1.54-.05-.65,2.17-1.13,3.17-.13.27-2.68,2.08-2.1,2.77l2.26-1.18c-.02,1.37-.29,1.81.97,1.58-.66-3.32,1.31-3.11,2.27-5.34-.67-1-1.88,1.52-2.27.98v-1.98ZM346.71,334.42v17.23c.62-.21,3.06-2.19,3.18-2.64s.35-3.84.39-4.67c.1-2.21-.48-8.84.46-10.13.23-.32,2.23-1.85,2.44-1.57-.12,1.25.21,2.9-.07,4.07-.42,1.75-2.4.68-1.71,4.25.08.41,1.62,4.58,1.79,4.73.54.46,3.88-2.51,3.87-3.34s-1.83-2.9-1.89-4.04c-.03-.6,1.35-2.38,1.53-3.93.23-1.98.7-7.22-1.66-6.83-.8.13-8.19,6.27-8.33,6.86ZM178.55,327.89c-1.54-.05-.65,2.16-1.13,3.17-.22.46-2.91,1.71-2.1,2.77.34.44,1.63-1.5,2.26-1.19-.02,1.37-.29,1.81.97,1.59-.97-2.87,1.75-3.7,1.95-4.95.26-1.66-1.81.81-1.94.59v-1.98ZM103.53,344.52c1.16.64,2.48,4.74,3.46,5.1.76.28,3.62-2.13,3.68-2.93.12-1.55-3.17-4.19-3.26-5.96-.08-1.58,3.61-10.68,3.23-11.26l-3.51,3.02-3.6,11.63v-8.32c-.48.04-3.56,2.7-3.56,2.97v17.23c.53.07,3.56-2.7,3.56-2.97v-8.51ZM153.65,329.87c-1.67.03-1.04,2.12-1.45,3.17-.34.86-2.16,1.09-1.78,2.77l1.94-1.19v1.98c2.07,0,.91-1.77,1.45-3.17.32-.81,1.6-.84,1.79-2.17.23-1.68-1.87.71-1.94.59v-1.98ZM228.27,332.71c-1.93.52-7.64,6.49-8.16,9.02-.28,1.33-.33,12.23,0,13.08.99,2.51,6.34-2.76,7.43-3.97,3.28-3.66,3.34-10.84,2.73-15.99-.2-1.68-.46-2.56-2-2.14ZM344.77,336.2c-.76.18-3.32,2.36-3.5,3.04-1.2,4.79,2.51,14.79-3.29,16.36v-13.46c-1.03.44-3.35,2.06-3.55,3.38-.31,2.04-.25,11.62-.02,13.87.13,1.32.33,1.46,1.47,1.39,1.64-.09,7.09-5.41,7.94-7.34.21-.49.96-2.84.96-3.18v-14.06ZM281.07,336.59s-.86-.04-.95.02c-.29.22-.25,2.52-.51,3.15-.21.52-2.52,1.78-1.78,2.77.4.53,1.26-1.35,1.77-1.19-.06,1.23.6,2.5,1.31,1.2.38-.7-.08-1.98.31-2.78.36-.73,4.19-3.49-.16-1.59-.06-.38.09-1.47,0-1.59ZM91.89,359.17v-9.31c0-.65,1.86-2.59,2.43-2.59,1.09,0,.45,1.96,1.28,1.59.16-.07,2.67-2.37,2.78-2.54.88-1.49.45-5.21-1.97-4.4-1.69.57-6.33,5.13-7.16,7.07-1.2,2.79-1.22,10.32-.92,13.54.28,2.93,1.34,2.38,3.01,1.3,3.98-2.56,7.49-6.21,7.34-12.2-.31-.36-3.35,2.15-3.58,2.54-.55.96-.07,2.05-.6,3.22-.28.62-2.19,2.29-2.61,1.76ZM215.74,343.72c-.46-.04-3.23,2.33-3.23,2.57v17.23l6.31-5.15.16-3.56c-.4-.57-2.44,2.51-3.23,1.98v-13.07ZM178.55,348.08c-1.57-.08-.66,2.26-1.04,3.09-.13.29-2.99,1.79-2.19,2.85.32.43,2.15-1.77,2.26-1.58v1.98c1.57.1.67-2.28,1.04-3.09.19-.42,1.68-.57,1.88-1.86.26-1.68-1.87.71-1.94.59v-1.98ZM322.46,372.63l7.92-6.74c.47-.83,1.27-1.92,1.59-2.81.77-2.17.74-9.83.54-12.46-.13-1.65-.43-2.51-1.96-1.98-2.12.72-5.92,5.36-8.08,6.76v17.23ZM200.55,356.4v17.42c.85-.08,3.29-2.22,3.49-3.05.61-2.55-.52-12.54.13-13.9.08-.17,2.57-2,2.84-1.66-.14,1.18.24,3.04-.05,4.09-.25.9-1.9.99-1.91,2.83,0,.83,1.78,5.17,2.29,5.57.65.51,3.79-2.38,3.86-2.84.1-.69-2.17-3.5-2.13-4.3.02-.42,1.14-1.78,1.36-2.56.56-1.97,1.37-8.64-1.27-8.32-2.04.24-6.3,5.85-8.6,6.73ZM76.45,374.91c1.15,1.43,4.46-1.78,5.52-2.75,3.77-3.44,4.47-4.93,4.75-10.82.08-1.71.24-8.36-.97-9.12-1.11-.7-3.64,1.78-4.63,2.66-2.46,2.19-4.79,4.41-5.09,8.42-.12,1.63-.16,10.88.41,11.6ZM135.22,357.59c-1.67.04-1.04,2.12-1.45,3.17-.2.51-2.53,1.77-1.78,2.77.29.38,1.81-1.4,1.94-1.19-.01,1.37-.29,1.81.97,1.59,0-.89-.07-1.83.22-2.68.25-.75,3.95-3.17.11-2.07v-1.58ZM198.61,358.77c-1.36.29-2.45,1.74-3.56,2.66-.81,5.02,2.36,15.07-3.23,16.35v-13.07c-.88-.03-3.43,2.14-3.56,2.97-.31,2.02-.22,11.2,0,13.47.1,1.09.3,2.25,1.38,2.11s6.19-4.57,7.03-5.69c.4-.53,1.94-3.5,1.94-3.96v-14.85ZM240.64,359.17c-1.67.03-1.04,2.12-1.45,3.17-.2.51-2.53,1.77-1.78,2.77.29.38,1.81-1.4,1.94-1.19v1.98c1.87-.02.99-2.67,1.36-3.49.19-.41,1.69-.58,1.88-1.86.23-1.59-1.72.29-1.94.59v-1.98ZM72.16,363.13c-.53-.07-3.56,2.7-3.56,2.97v17.23c2.61-2.55,7.45-4.05,6.46-9.11l-2.91,2.38v-13.46ZM315.99,363.13h-7.92c-.71,0-7.11,12.67-8.25,14.26h5.01c.43,0,2.21-4.87,3.08-5.36,1.06-.59,2.33,1,3.25-.36l4.82-8.54ZM316.96,365.5c-.76-.24-.54.22-.74.5-3.04,4.34-5.5,9.71-8.47,14.15h-8.41s-.49.55-.49.59v7.52c0,.21.5.88.32,1.39h7.28c.44,0,1.54-.15,1.78-.57.81-2.54,8.73-13.98,8.73-15.47v-8.12ZM176.29,377.98v16.83c.65.06,1.14-.55,1.66-.94,2.18-1.67,6.52-5.29,7.73-7.95,1.3-2.86,1.15-8.59.97-11.91-.1-1.83.03-3.61-1.88-3.09-.97.27-8.33,6.38-8.49,7.07ZM240.64,378.97c-1.64.05-1.06,2.06-1.46,3.16-.35.97-2.3,1.51-2.1,3.17l2.1-1.58.16,1.98c1.67-.03,1.04-2.12,1.45-3.17.33-.85,1.6-.83,1.79-2.17.23-1.68-1.87.71-1.94.59v-1.98ZM96.74,379.37c-1.35-.07-.78,1.72-1.14,2.76-.29.84-2.81,2.22-2.09,3.17.27.36,1.35-1.18,1.94-.79.14.18-.23,1.6.17,1.59,1.37-.04.96-2.23,1.29-3.17.36-1.02,1.92-1.23,2.1-2.57.25-1.81-2.07,1.32-2.27.99v-1.98ZM211.54,384.51c-1.67.03-1.04,2.12-1.45,3.17-.2.51-2.53,1.77-1.78,2.77.29.38,1.81-1.4,1.94-1.19v1.98c1.87-.02.99-2.65,1.37-3.48.2-.44,1.95-1,2.19-2.27.31-1.64-1.95.71-2.25,1v-1.98ZM169.82,385.31c-2.73.47-5.64.09-8.27.76l-7.9,13.89c.19.2,4.48-.3,4.95-.47.98-.35,2.38-4.64,2.87-4.99.65-.47,2.75.31,3.42-.17.34-.24,4.14-6.86,4.53-7.71.21-.44.49-.72.38-1.31ZM153.01,411.84h7.6c.19,0,1.4-.59,1.61-.8.81-2.25,8.58-13.61,8.58-14.84v-7.52c0-.88-.68-.37-.96,0-2.82,3.72-5.3,9.44-7.83,13.57-2.99.33-6.05-.33-8.99.48v9.11ZM325.69,390.06c-1.54-.05-.65,2.16-1.13,3.17-.38.78-2.37,1.04-2.1,2.77l2.26-1.18v1.98c1.5.05.7-2.06,1.13-3.17.25-.64,1.82-1.32,2.1-2.18.57-1.74-2.12.79-2.26.6v-1.98ZM96.74,399.17c-1.36-.07-.77,1.74-1.13,2.77-.29.81-5,4.67.16,1.59v1.98c1.54.07.65-2.16,1.13-3.17.23-.47,1.79-1.31,2.1-2.18.57-1.65-2.07.87-2.26.6v-1.58ZM240.64,399.17c-1.67.03-1.04,2.12-1.45,3.17-.34.86-2.16,1.09-1.78,2.77l1.94-1.19v1.98c1.67-.03,1.05-2.12,1.45-3.17.33-.85,1.6-.83,1.79-2.17.23-1.68-1.87.71-1.94.59v-1.98ZM211.54,404.31c-1.43,0-1.07,2.15-1.47,3.15-.27.7-2.46,1.87-1.76,2.78.34.45,1.85-1.33,1.94-1.19v1.98c1.67-.03,1.05-2.12,1.45-3.17.33-.85,1.6-.83,1.79-2.17.23-1.68-1.87.71-1.94.59v-1.98ZM325.69,409.86c-1.5-.03-.7,2.07-1.13,3.17-.25.65-5.11,4.73.15,1.58-.01,1.37-.29,1.82.97,1.59-.66-3.32,1.31-3.11,2.27-5.34-.67-1-1.88,1.52-2.27.98v-1.98ZM299.82,412.63c-1.67.03-1.04,2.12-1.45,3.17-.34.86-2.16,1.09-1.78,2.77l1.94-1.19v1.98c1.65-.05,1.07-2.05,1.46-3.16.33-.93,1.6-1.02,1.78-2.18.26-1.68-1.87.71-1.94.59v-1.98ZM178.55,413.03c-1.54-.05-.65,2.16-1.13,3.17-.22.46-2.91,1.71-2.1,2.77.34.45,1.85-1.33,1.94-1.19v1.98c1.65-.05,1.07-2.05,1.46-3.16.33-.93,1.6-1.02,1.78-2.18.26-1.66-1.81.81-1.94.59v-1.98ZM250.4,434.73c.95.68,3.4-2.09,4.13-2.95.15-1.02-3.36-4.55-3.47-5.95-.12-1.58,3.29-8.89,3.33-11.22-5.01,2.5-4.84,8.89-6.9,14.15-.08.64,2.66,5.79,2.91,5.97ZM96.74,418.97c-1.5-.03-.7,2.07-1.13,3.17-.17.44-2.7,2.06-2.11,2.76.4.48,1.95-1.62,2.26-1.18v1.98c1.62-.39.68-1.61,1.02-2.91.21-.78,1.69-1.02,1.89-2.43.26-1.8-1.62,1.05-1.94.59v-1.98ZM243.88,423.91v17.23c.83-.74,3.4-2.24,3.46-3.4l-.22-16.79c-.61.61-3.06,2.22-3.23,2.97ZM211.54,424.51c-1.67.03-1.04,2.12-1.45,3.17-.2.51-2.53,1.77-1.78,2.77.29.38,1.81-1.4,1.94-1.19v1.98c1.67-.03,1.05-2.12,1.45-3.17.33-.85,1.6-.83,1.79-2.17.23-1.68-1.87.71-1.94.59v-1.98ZM235.47,444.31v-9.31c0-.74,2.17-2.74,2.75-2.96.97-.37.15,1.96.64,2.37,1.27-1.62,3.31-2.01,3.43-4.54.12-2.47-.16-3.64-2.31-2.8-1.15.45-6.02,5.12-6.72,6.42-1.64,3.03-1.65,10.16-1.35,13.79.21,2.47.71,3.2,2.7,2.11,1.03-.56,5.11-4.37,5.87-5.48,1.39-2.01,1.97-4.49,1.77-7.13-.22-.31-3.39,2.24-3.49,2.45-.22.49,0,1.65-.14,2.41-.24,1.35-2.05,2.7-3.17,2.66ZM325.7,432.03v-2.38c-1.58.4-.72,1.51-1.04,2.89-.21.93-2.6,2.1-1.87,3.05.34.45,1.85-1.33,1.94-1.19v1.78c1.49.67.71-2.17,1.04-2.89.14-.3,1.95-1.26,2.18-1.88.9-2.46-2.16.76-2.25.61ZM353.22,450.6c.56.4,3.63-2.2,3.8-3.01.26-1.26-1.72-3.37-1.85-4.34-.05-.41,1.37-2.5,1.54-3.92.13-1.17.19-4.82.03-5.91-.3-1.97-2.1-.68-3.01-.12-.83.51-6.09,4.82-6.54,5.45-.23.31-.47.54-.47,1.01v16.82c.13.19,2.69-1.95,2.88-2.2.31-.4.5-.69.6-1.24.49-2.67-.52-12.43.39-13.77.15-.22,2.43-1.99,2.58-1.78-.12,1.25.21,2.9-.07,4.07-.42,1.74-2.55.76-1.72,4.65.09.43,1.65,4.17,1.83,4.29ZM178.55,433.22c-.06-.07-.71.05-.97,0,.4,2.96-.37,2.7-1.62,4.15-1.84,2.14.57,1.32,1.62.21v1.98c1.54.07.65-2.16,1.13-3.17.31-.63,1.58-.79,1.78-2.17.26-1.8-1.63,1.05-1.94.59-.06-.38.09-1.47,0-1.59ZM153.65,434.81c-1.67.03-1.04,2.12-1.45,3.17-.2.51-2.53,1.77-1.78,2.77.29.38,1.81-1.4,1.94-1.19v1.98c1.87-.02.99-2.67,1.36-3.49.19-.41,1.68-.57,1.88-1.86.26-1.68-1.87.71-1.94.59v-1.98ZM103.53,449.46v-8.32c-.48.04-3.56,2.7-3.56,2.97v17.23c.57.06,3.56-2.6,3.56-2.97v-8.51l3.25,5.54c.2.17,3.86-2.72,3.9-3,.18-1.53-3.17-4.51-3.26-6.32-.1-2.14,2.92-8.25,3.07-10.85l-3.41,2.65-3.54,11.6ZM228.24,454.86c.99-1.27,1.89-3.44,2.06-5.2.2-2.2.25-8.56-.02-10.67-.1-.79-.37-1.75-1.12-1.83-1.21-.13-7.06,5.21-7.92,6.56-2.58,4.08-1.1,10.64-1.3,15.44.03.65.49,1.06.96,1.22,1.17.38,6.41-4.32,7.33-5.52ZM281.07,441.14c-.12-.14-.9-.05-1.14.39-.38.69.07,2.03-.31,2.79-.31.64-2.07.65-1.79,2.36l1.94-.79c-.4,1.37.5,2.37,1.14,1.2.38-.7-.07-1.98.31-2.78.31-.64,1.58-.79,1.78-2.17.24-1.67-1.81.82-1.94.59-.06-.38.09-1.48,0-1.59ZM344.77,441.14c-.22-.32-3.08,2.24-2.58,2.77,2.14.21,2.89.15,2.58-2.77ZM91.89,464.5v-9.7c0-.27,3.68-4.23,2.91-.59.38.46,3.02-1.88,3.37-2.4.91-1.34.37-5.14-1.52-4.67-.56.14-5.66,4.4-6.22,5.09-1.13,1.42-1.97,3.73-2.12,5.72-.15,2.11-.27,8.83.02,10.7.35,2.28,1.94,1.21,3,.53,3.69-2.39,7.93-6.39,7.01-12.2-.2-.28-3.09,2.25-3.26,2.54-.52.89-.16,1.82-.37,2.72-.18.79-2.45,2.76-2.84,2.26ZM344.77,447.08c-.54-.14-.66.21-.97.6-.86,1.08-2.64,4.95-2.84,6.42-.41,3.04.4,5.35-2.99,6.44.39-3.69-.44-5.14-3.56-4.75v9.31c0,.12.65.86.88.94,1.51.48,7.87-5.91,8.63-7.9.2-.53.84-2.93.84-3.33v-7.72ZM212.51,451.24v17.23c1.29-1.51,5.27-3.82,6.17-5.32.62-1.03.19-2.62.3-3.79l-2.91,1.98-.33-13.07c-.63.4-3.09,2.37-3.23,2.97ZM334.43,451.83c.6-.19,2.2-3.18,1.93-3.56-1.34.69-2.22,1.64-1.93,3.56ZM178.55,453.02c-1.54-.05-.65,2.17-1.13,3.17-.13.26-2.69,2.09-2.1,2.77l2.26-1.18c-.02,1.37-.29,1.81.97,1.58-.94-3,1.75-3.49,1.95-4.95.23-1.67-1.8.82-1.94.59v-1.98ZM322.46,460.15v17.42l7.27-5.95c1.38-1.49,2.55-3.43,2.76-5.73.14-1.59.24-7.73.02-9.09-.08-.48-.86-.09-.99-.22l.97-2.17c-.21-.39-.44-.54-.82-.62-2.48-.52-6.82,5.26-9.21,6.35ZM200.55,461.53v17.23c.63-.53,3.33-2.43,3.5-3.04.67-2.42-.32-9.83.04-13.02.18-1.65,2.82-3.79,3.2-2.3.99,3.92-2.2,4.5-2.17,6.26.01.78,1.82,5.67,2.21,5.98.52.42,3.53-2.37,3.58-3.21.09-1.34-1.79-3.11-1.91-4.01-.07-.56,1.04-1.9,1.3-2.63.69-1.91,1.55-8.91-1.11-8.51-.85.13-8.51,6.63-8.65,7.25ZM86.02,457.83c-1.83-1.4-8.24,5.36-9.14,7.51-1.14,2.73-1.08,9.67-.84,12.83.38,4.9,3.81,1.21,5.73-.5,2.35-2.1,4.35-3.92,4.63-7.79.11-1.54.12-11.66-.38-12.04ZM134.9,463.32c-1.5-.03-.7,2.07-1.13,3.17-.19.5-2.53,1.77-1.78,2.76.41.54,1.31-1.52,1.94-1.18-.19,1.03.04,2.25.95,1.56.32-.24.22-2.54.51-3.15s1.29-.52,1.46-1.78c.25-1.81-1.62,1.06-1.94.59v-1.98ZM198.61,463.32c-.88.31-3.26,2.11-3.49,3.05-.76,3.19.63,10.11-.13,13.3-.22.92-2.21,2.95-3.17,2.66v-13.07c-1.03.44-3.35,2.06-3.55,3.38-.32,2.11-.2,10.29,0,12.66s.53,3.05,2.39,2.14c1.99-.97,7.96-6.48,7.96-9.26v-14.85ZM240.64,464.11c-1.64.05-1.06,2.05-1.46,3.16-.29.81-5,4.67.16,1.59v1.98c1.65-.05,1.07-2.05,1.46-3.16.33-.93,1.6-1.02,1.78-2.18.26-1.68-1.87.71-1.94.59v-1.98ZM72.16,468.46c-.53-.07-3.56,2.7-3.56,2.97v17.23l6.4-5.23.07-3.88-2.91,2.38v-13.46ZM315.99,468.46h-8.41l-7.76,13.67c-.09.81.03.51.47.59.8.14,4.07-.17,4.69-.6.66-.45,2.04-4.57,2.81-4.88.72-.3,1.74.1,2.53-.07,1.42-.32,4.65-7.01,5.67-8.7ZM298.85,494.6h8.89c1.56-3.53,8.75-12.82,9.2-16.06.35-2.48-.41-5.21-.47-7.7l-8.73,14.25h-8.57l-.32,9.5ZM176.29,499.75l7.92-6.74c2.97-3.4,2.78-10.2,2.44-14.86-.16-2.22-.63-3.12-2.62-2.37-1.88.7-5.77,5.41-7.75,6.75v17.23ZM240.64,483.91c-1.64.05-1.06,2.05-1.46,3.16-.24.67-2.49,1.84-1.77,2.77.34.45,1.85-1.33,1.94-1.19v1.98c1.67-.03,1.05-2.12,1.45-3.17.33-.85,1.6-.83,1.79-2.17.23-1.67-1.8.82-1.94.59v-1.98ZM96.74,484.31c-1.36-.07-.77,1.74-1.13,2.77-.26.72-2.86,2.15-2.1,3.17.32.43,1.74-1.6,2.26-1.58v1.98c1.35.08.78-1.7,1.14-2.76.28-.81,1.73-1.62,1.78-1.79.64-2.36-1.87.33-1.94.2v-1.98ZM211.54,489.45c-1.67.03-1.04,2.12-1.45,3.17-.2.51-2.53,1.77-1.78,2.77.29.38,1.81-1.4,1.94-1.19v1.98c1.87-.02.99-2.67,1.36-3.49.19-.41,1.69-.58,1.88-1.86.23-1.59-1.72.29-1.94.59v-1.98ZM169.82,490.24h-7.92c-.68,0-6.69,12.22-7.92,13.67-.09.81.03.51.47.59.63.11,4.23-.2,4.63-.48.49-.34,1.71-4.35,2.66-4.88.88-.49,1.57.35,2.4.22s4.26-6.12,4.96-7.42c.3-.55.79-.98.71-1.7ZM170.79,492.62c-.62-.18-.62.28-.91.67-2.79,3.75-5.12,9.4-7.82,13.39l-9.05.6v8.91c0,1.15,2.27.22,2.75.2,2.09-.09,4.22.24,6.3-.2.8-2.09,8.73-14.12,8.73-15.04v-8.51ZM240.64,503.71c-1.76.1-1.04,2.18-1.34,3.3s-2.53.97-1.88,3.04l1.94-1.19c-.19,1.03.04,2.25.95,1.56.31-.23.23-2.52.51-3.15s1.58-.79,1.78-2.18c.26-1.8-1.62,1.05-1.94.59v-1.98ZM96.74,504.11c-1.35-.07-.78,1.72-1.14,2.76-.28.8-2.8,2.23-2.09,3.17.32.43,2.15-1.77,2.26-1.58v1.98c1.36.09.77-1.73,1.14-2.77s1.92-1.23,2.1-2.57c.23-1.67-1.89.88-2.27.99v-1.98ZM211.54,509.25c-1.67.03-1.04,2.12-1.45,3.17-.2.51-2.53,1.77-1.78,2.77.29.38,1.81-1.4,1.94-1.19v1.98c1.87-.02.99-2.67,1.36-3.49.19-.41,1.68-.57,1.88-1.86.26-1.68-1.87.71-1.94.59v-1.98ZM178.55,517.97c-1.5-.03-.7,2.07-1.13,3.17-.17.44-2.7,2.06-2.11,2.76.4.48,1.95-1.62,2.26-1.18v1.98c1.5.05.7-2.06,1.13-3.17.32-.81,1.6-.84,1.79-2.17.25-1.81-1.62,1.05-1.94.59v-1.98ZM247.11,534.2v-7.92c-.6-.18-3.23,2.33-3.23,2.57v17.23c.66-.73,3.56-2.41,3.56-3.37v-8.12c.81.45,2.71,5.07,3.13,5.17.98.25,3.31-2.04,3.96-3.05.11-.81-3.46-4.47-3.51-5.87-.06-1.48,3.66-10.31,3.21-10.9-4.61,1.86-4.79,8.11-6.43,12.91-.17.48-.05,1.23-.68,1.35ZM96.74,524.3c-1.36-.07-.77,1.74-1.13,2.77-.26.72-2.86,2.15-2.1,3.17.32.43,2.15-1.77,2.26-1.58v1.98c1.57.09.67-2.26,1.04-3.08.21-.45,1.95-1,2.19-2.27.31-1.64-1.92.89-2.25,1v-1.98ZM211.54,529.05c-1.63.02-1.01,2.63-1.46,3.56-.17.35-2.52,1.78-1.77,2.77.37.49,1.27-1.3,1.77-1.19,1.07-.19-.05,1.38.17,1.59.17.17.91.04,1.14-.38.38-.7-.08-1.98.31-2.78.23-.47,1.79-1.31,2.1-2.18.55-1.57-2.11.67-2.26,1v-2.37ZM235.47,549.25v-8.91c0-.77,2.05-2.82,2.74-2.98.99-.23.16,1.54.65,1.98,2.02-2.08,4.11-2.07,3.32-6.05-.27-1.35-.84-1.74-1.95-1.39-1.48.47-6.67,5.75-7.42,7.56-1,2.45-1.46,12.16-.62,14.37,1.01,2.65,5.78-2.11,6.97-3.42,2.22-2.41,3.4-4.88,3.08-8.7-.22-.31-3.39,2.24-3.49,2.45-.28.62.17,1.73-.37,2.91-.3.65-2.33,2.87-2.93,2.16ZM178.55,537.77c-1.5-.03-.7,2.07-1.13,3.17-.16.42-2.7,2.08-2.11,2.76s1.91-1.67,2.26-1.18v1.98c1.5.05.7-2.06,1.13-3.17.32-.81,1.6-.84,1.79-2.17.25-1.81-1.62,1.05-1.94.59v-1.98ZM103.53,554v-7.92c-1.37.09-2.14,2.09-3.56,2.38v17.42c1.36-.1,2.24-1.96,3.56-2.38v-9.11l3.42,5.57c.56.11,3.7-2.63,3.7-3.39-.01-1.29-3.15-4.4-3.24-5.56-.15-1.72,3.58-10.84,3.24-11.27-.99.43-3.18,2.17-3.7,3.19-1.09,2.17-1.99,7.3-2.86,9.97-.14.42-.09,1.18-.56,1.09ZM153.65,539.75c-1.64.05-1.06,2.05-1.46,3.16-.23.65-2.47,1.84-1.77,2.77.27.36,1.35-1.18,1.94-.79.14.18-.23,1.6.17,1.59,1.59-.04.88-2.8,1.19-3.49.19-.41,1.68-.57,1.88-1.86.26-1.68-1.87.71-1.94.59v-1.98ZM229.89,542.61c-.64-.95-1.89.03-2.55.45-2.77,1.75-7.04,5.52-7.4,9.55-.12,1.38-.11,11.54.16,12.08.96,1.96,4.1-1.18,5.12-2.06,2.83-2.43,4.76-4.26,5.08-8.82.11-1.64.15-10.37-.41-11.2ZM91.89,569.44v-9.7c0-.54,1.97-2.59,2.42-2.59,1.09,0,.46,1.96,1.29,1.6.15-.07,2.42-2.17,2.57-2.4.9-1.34.33-5.23-1.51-4.66-1.54.48-6.86,5.82-7.62,7.72-1.02,2.55-.93,10.35-.71,13.4.17,2.36,1.05,2.2,2.7,1.32,3.33-1.78,8.09-7.1,7.66-12.01-.04-.47.09-.81-.49-.59-.24.09-2.92,2.34-3.07,2.57-.61.93-.13,1.95-.49,2.96-.2.55-2.39,2.86-2.74,2.38ZM212.51,556.18v17.23c1.29-1.51,5.27-3.82,6.17-5.32.51-.86.4-2.79.14-3.79l-3.07,2.37.32-13.46c-.23-.3-3.44,2.45-3.56,2.97ZM178.55,557.96c-1.57-.08-.66,2.26-1.04,3.09-.13.29-2.99,1.79-2.19,2.85.32.43,1.73-1.6,2.26-1.58v1.98c1.57.09.67-2.25,1.04-3.08.12-.25,1.81-1.2,1.88-1.47.61-2.27-1.86.34-1.94.2v-1.98ZM200.55,566.47v17.23c.78-.63,3.26-2.1,3.5-3.04.67-2.68-.66-12.61.39-14.17.29-.44,2.54-2.25,2.9-1.79-.03,1.61.3,3.24-.64,4.56-.38.53-1.25.83-1.48,1.38-.76,1.84,1.79,5.27,2.12,7.13.22.21,3.76-2.84,3.84-3.42s-2.13-3.72-2.14-4.3c0-.28,1.04-1.68,1.26-2.3.67-1.87,1.54-9.03-1.12-8.51-.72.14-8.5,6.63-8.65,7.25ZM84.37,562.41c-.55.18-4.93,3.98-5.57,4.67-3.37,3.67-3.12,10.05-2.77,15.25.15,2.27.39,3.66,2.51,2.64,2.01-.96,7.15-6.15,7.7-8.79.24-1.18.47-5.13.49-6.53.02-1.24.04-6.91-.87-7.29-.43-.18-1.05-.11-1.49.04ZM134.9,568.26c-1.42-.09-.71,1.88-1.13,2.77-.13.27-2.36,1.72-1.78,2.37.44.49,1.68-1.15,1.94-.79-.02,1.37-.29,1.81.97,1.58-.94-3,1.75-3.49,1.95-4.95.25-1.81-1.62,1.06-1.94.59v-1.58ZM191.81,574.19c-.98.36-3.38,2.29-3.55,3.37-.32,2.01-.2,10.36,0,12.66s.58,3.18,2.5,2.27,7.85-6.78,7.85-9.39v-14.85c-.78.63-3.26,2.1-3.5,3.04-.77,3.09.63,10.14-.13,13.31-.22.92-2.21,2.95-3.17,2.66v-13.07ZM72.16,573.4c-1.36.1-2.24,1.96-3.56,2.38v17.42l6.31-5.15.16-3.56-2.91,2.37v-13.46ZM176.29,604.69l7.59-6.35c3.36-3.41,3.13-10.33,2.77-15.25-.15-2.03-.42-3-2.29-2.37-2.2.73-5.93,5.24-8.07,6.75v17.23ZM96.74,589.24c-1.36-.07-.77,1.74-1.13,2.77-.26.72-2.86,2.15-2.1,3.17.32.43,1.74-1.6,2.26-1.58v1.98c1.54.06.65-2.16,1.13-3.17.34-.72,1.85-.86,2.1-2.19.31-1.64-1.92.89-2.25,1v-1.98ZM169.82,595.18h-7.92c-2.19,4.32-5.52,8.6-7.54,12.95-.21.44-.49.71-.38,1.31h4.69c.37,0,2.37-4.93,3.07-5.35,1.18-.72,2,.91,3.26-.36.58-.59,3.97-6.22,4.44-7.23.2-.44.49-.71.39-1.31ZM170.79,597.56c-.76-.24-.54.22-.74.5-3.01,4.28-5.39,9.86-8.47,14.15h-8.57v9.5l9.05-.6c.85-2.15,8.73-13.97,8.73-15.04v-8.51ZM96.74,609.04c-1.36-.07-.77,1.74-1.13,2.77-.26.72-2.86,2.15-2.1,3.17.32.43,2.15-1.77,2.26-1.58v1.98c1.57.1.67-2.28,1.04-3.09.19-.42,1.68-.57,1.88-1.86.26-1.68-1.87.71-1.94.59v-1.98ZM96.74,628.84c-1.5-.03-.7,2.07-1.13,3.17-.17.44-2.7,2.06-2.11,2.76.4.48,1.95-1.62,2.26-1.18-.02,1.37-.29,1.81.97,1.58-.94-3,1.75-3.49,1.95-4.95.25-1.81-1.62,1.05-1.94.59v-1.98ZM106.8,664.83c.49.35,3.69-2.42,3.82-3,.28-1.29-3.09-4.48-3.21-5.88-.18-2.03,3.09-8.62,3.08-11.27-.95,1-2.67,1.71-3.36,3.01-.52.98-3.11,9.63-3.22,10.75-.21,2.33,2.38,4.16,2.89,6.38ZM103.53,651.02c-.68-.19-3.56,2.7-3.56,2.97v16.83c.55.2,3.56-2.32,3.56-2.57v-17.23ZM91.89,674.38v-9.7c0-.47,3.7-4.71,3.39-.6.8-1.01,3.21-2.12,3.34-3.45.22-2.15-.23-4.26-2.29-3.58-1.39.46-6.42,5.37-7.17,7.06-1.18,2.66-1.07,10.44-.83,13.64.14,1.9.46,2.13,2.03,1.68,1.19-.34,5.7-4.54,6.55-5.84,1.37-2.1,1.46-3.98,1.78-6.54-.04-1.08-3.41,1.69-3.72,2.58s-.04,1.63-.47,2.59c-.21.47-2.26,2.62-2.61,2.15ZM86.03,667.3c-1.13-.9-6.8,4.15-7.72,5.3-2.78,3.5-2.63,10.41-2.28,15.06.37,4.98,3.68,1.42,5.61-.29,1.4-1.24,3.7-3.41,4.34-5.38.53-1.62.84-9.32.69-11.33-.04-.51-.51-3.26-.64-3.37ZM72.16,678.34c-.68-.19-3.56,2.7-3.56,2.97v16.83c1-.43,6.03-4.44,6.31-5.15.39-.98.07-2.48.16-3.56l-2.91,2.37v-13.46Z"/>
            <path class="cls-4" d="M357.38,237.6v.4c-.88.36-3.25,3.58-4.05,2.81-.4-.39-2.32-4.77-2.33-5.45-.04-1.81,1.85-2.1,2.12-3.17.28-1.13-.07-2.85.06-4.08-.27-.34-2.76,1.49-2.84,1.66-.62,1.29.42,11.46-.21,14.21-.21.93-2.64,2.46-3.42,3.13v-17.82c1.89-.64,7.76-7.56,9.37-6.55,1.24.78.87,6.22.5,7.76-.24,1-1.45,2.36-1.41,2.88.05.74,1.62,3.59,2.21,4.23Z"/>
            <path class="cls-4" d="M357.38,132.26v.4l-3.72,3.09c-.44-.04-2.11-3.97-2.27-4.66-.78-3.48,1.36-2.76,1.73-4.24.19-.75.11-2.62.06-3.5-.03-.43.18-1.32-.48-.98-.47.24-1.68,1.92-2.44,2.26l-.06,13.7c-.24,1-2.54,2.93-3.49,3.05v-17.42c2.6-1.19,5.45-5.29,7.85-6.43,2.92-1.39,2.44,4.7,2.15,6.99-.19,1.49-1.6,2.98-1.6,3.58,0,.56,1.68,3.67,2.27,4.16Z"/>
            <path class="cls-4" d="M357.38,279.97v1.19l-2.27,1.38c.16-1.36,1.24-2.28,2.27-2.57Z"/>
            <path class="cls-4" d="M357.38,70.49v1.19l-2.27.99c.29-1.08,1.26-2.3,2.27-2.17Z"/>
            <path class="cls-4" d="M357.38,155.23v1.19l-2.27,1.38c.16-1.36,1.24-2.28,2.27-2.57Z"/>
            <path class="cls-4" d="M357.38,175.03v1.19c-.48-.2-2.19,2.25-1.95.59.15-1,1.07-1.92,1.95-1.78Z"/>
            <path class="cls-4" d="M357.38,384.91v1.19c-2.98,2.75-2.42-.65,0-1.19Z"/>
            <path class="cls-4" d="M357.38,300.17v1.19c-2.89,2.8-2.46-.47,0-1.19Z"/>
            <path class="cls-4" d="M357.38,365.11v1.19c-2.98,2.75-2.42-.65,0-1.19Z"/>
            <path class="cls-4" d="M357.38,50.29v1.19c-.48-.2-2.19,2.25-1.95.59.15-1,1.07-1.92,1.95-1.78Z"/>
            <polygon class="cls-4" points="357.38 194.83 357.38 196.41 355.44 197 357.38 194.83"/>
            <path class="cls-4" d="M67.64,551.62l1.94-.99c-.07,1.29-1.02,1.91-1.94,2.17v-1.19Z"/>
            <path class="cls-4" d="M67.64,531.43c3-2.67,2.4.43,0,1.19v-1.19Z"/>
            <path class="cls-4" d="M357.38,260.17v1.19c-3,2.67-2.4-.43,0-1.19Z"/>
            <path class="cls-4" d="M357.38,90.29v1.19c-3.07,2.67-2.37-.62,0-1.19Z"/>
            <path class="cls-4" d="M67.64,406.69l1.94-.99c-.07,1.29-1.02,1.91-1.94,2.17v-1.19Z"/>
            <polygon class="cls-4" points="67.64 511.63 69.58 510.64 67.64 512.42 67.64 511.63"/>
            <polygon class="cls-4" points="67.64 446.29 69.58 445.7 67.64 447.48 67.64 446.29"/>
            <polygon class="cls-4" points="67.64 426.49 69.58 425.5 67.64 427.28 67.64 426.49"/>
            <polygon class="cls-4" points="357.38 405.1 357.38 405.9 355.44 406.88 357.38 405.1"/>
            <polygon class="cls-4" points="67.64 636.37 69.58 635.38 67.64 637.55 67.64 636.37"/>
            <polygon class="cls-4" points="67.64 321.95 69.58 320.96 67.64 322.74 67.64 321.95"/>
            <path class="cls-4" d="M67.64,616.57c2.24-2.83,2.3.64,0,.79v-.79Z"/>
            <path class="cls-4" d="M67.64,301.35c2.47-1.9,2.15.77,0,1.19v-1.19Z"/>
            <path class="cls-4" d="M316.96,365.5v8.12c0,1.49-7.92,12.92-8.73,15.47-.25.42-1.34.57-1.78.57h-7.28c.18-.51-.32-1.17-.32-1.39v-7.52s.45-.59.49-.59h8.41c2.97-4.44,5.44-9.81,8.47-14.15.2-.29-.02-.74.74-.5Z"/>
            <path class="cls-4" d="M316.96,155.63v8.12c0,.95-8.03,13.5-9.06,15.44l-8.32.52c-.26.15-.73-.38-.73-.52v-8.32c2.64-1.55,6.12-.98,9.05-.77,2.68-4.01,5.2-10.27,8.09-13.87.31-.39.42-.75.96-.6Z"/>
            <path class="cls-4" d="M298.85,494.6l.32-9.5h8.57l8.73-14.25c.05,2.49.81,5.22.47,7.7-.45,3.24-7.64,12.53-9.2,16.06h-8.89Z"/>
            <path class="cls-4" d="M170.79,282.74v8.51c0,.95-8.22,13.27-9.22,15.25h-8.57v-9.5h9.05c.22-1.03.84-2.05,1.35-2.9,1.85-3.06,4.42-8.28,6.41-10.76.31-.39.42-.75.96-.6Z"/>
            <path class="cls-4" d="M170.79,492.62v8.51c0,.92-7.93,12.95-8.73,15.04-2.08.44-4.21.11-6.3.2-.49.02-2.75.95-2.75-.2v-8.91l9.05-.6c2.7-3.99,5.03-9.64,7.82-13.39.29-.39.29-.84.91-.67Z"/>
            <path class="cls-4" d="M153.01,200.77v-9.11l9.05-.6c2.84-4.86,5.55-9.98,8.73-14.45v8.91c0,.94-8.08,13.13-8.89,15.25h-8.89Z"/>
            <path class="cls-4" d="M153.01,411.84v-9.11c2.94-.8,6-.15,8.99-.48,2.53-4.13,5.01-9.85,7.83-13.57.29-.38.96-.89.96,0v7.52c0,1.23-7.77,12.59-8.58,14.84-.21.22-1.42.8-1.61.8h-7.6Z"/>
            <path class="cls-4" d="M299.18,74.05c-.04-1.23-.89-9.5.16-9.5h8.41c.73,0,7.2-13.16,8.89-14.26v8.91l-8.89,14.85h-8.57Z"/>
            <path class="cls-4" d="M170.79,597.56v8.51c0,1.08-7.88,12.89-8.73,15.04l-9.05.6v-9.5h8.57c3.08-4.29,5.46-9.87,8.47-14.15.2-.28-.02-.74.74-.5Z"/>
            <path class="cls-4" d="M298.85,275.61l9.05-.19c2.84-4.87,5.46-10.01,8.73-14.46v8.91c0,.91-7.89,12.63-8.73,14.66l-8.33.51c-.26.15-.73-.38-.73-.52v-8.91Z"/>
            <path class="cls-4" d="M76.45,374.91c-.58-.72-.53-9.97-.41-11.6.29-4.02,2.62-6.24,5.09-8.42.99-.88,3.52-3.36,4.63-2.66,1.21.76,1.05,7.41.97,9.12-.28,5.89-.98,7.38-4.75,10.82-1.06.97-4.37,4.17-5.52,2.75ZM82.84,357.58c-.88-.34-3.23,2.17-3.23,2.97v9.31c.78.59,3.23-2.3,3.23-2.57v-9.7Z"/>
            <path class="cls-4" d="M229.89,227.4c.56.83.53,9.93.41,11.6-.33,4.62-2.78,6.86-5.73,9.22-1.08.87-4.13,3.86-4.62.66s-.47-11.06.58-13.92c.79-2.15,5.03-5.98,6.8-7.11.66-.42,1.91-1.4,2.55-.45ZM226.74,232.85c-5.07.31-2.88,8.08-3.23,12.27.42.57,3.23-2.72,3.23-2.97v-9.31Z"/>
            <path class="cls-4" d="M84.37,246.8c.48-.16,1.32-.27,1.72.08,1.17,1.01.57,12.27,0,14.3-.63,2.23-5.77,7.34-7.54,8.18-1.38.66-2.31.43-2.51-1.45-.39-3.59-.29-11.62,1.36-14.6.72-1.3,5.87-6.14,6.98-6.51ZM82.84,252.25c-.96-.49-3.23,2.23-3.23,2.97v8.91c.73.56,3.23-1.75,3.23-2.18v-9.7Z"/>
            <path class="cls-4" d="M176.29,272.64c.19-.85,7.38-6.94,8.4-7.17,1.96-.44,1.86,1.33,1.96,3.19.33,6.32.69,10.91-3.42,15.25-1.87,1.98-4.72,4.25-6.95,5.55v-16.83ZM179.85,283.14c.8-.37,3.23-2.39,3.23-3.37v-8.71c0-1.8-2.66,1.44-3.23,1.39v10.69Z"/>
            <path class="cls-4" d="M176.29,184.14v-17.23c1.8-1.27,7.79-8.15,9.71-6.74.55.4.61,1.65.66,2.37.36,4.88.55,11.86-2.77,15.25l-7.59,6.35ZM183.08,165.13c-.64-.4-3.23,1.83-3.23,2.18v10.1c.89.26,3.23-2.75,3.23-3.37v-8.91Z"/>
            <path class="cls-4" d="M228.24,454.86c-.92,1.19-6.16,5.89-7.33,5.52-.48-.15-.93-.57-.96-1.22.2-4.8-1.28-11.36,1.3-15.44.85-1.35,6.7-6.69,7.92-6.56.74.08,1.01,1.04,1.12,1.83.27,2.11.22,8.46.02,10.67-.16,1.77-1.07,3.93-2.06,5.2ZM226.74,442.72c-.87-.29-3.23,1.74-3.23,2.57v9.7c.88.34,3.23-2.17,3.23-2.97v-9.31Z"/>
            <path class="cls-4" d="M176.29,604.69v-17.23c2.15-1.51,5.87-6.01,8.07-6.75,1.87-.62,2.14.34,2.29,2.37.36,4.92.59,11.84-2.77,15.25l-7.59,6.35ZM183.08,585.68c-.56-.28-3.23,1.95-3.23,2.18v10.49c.66-.55,3.23-2.52,3.23-3.37v-9.31Z"/>
            <path class="cls-4" d="M176.29,499.75v-17.23c1.98-1.34,5.86-6.05,7.75-6.75,1.99-.74,2.45.15,2.62,2.37.34,4.66.53,11.46-2.44,14.86l-7.92,6.74ZM183.08,480.74c-.62-.41-3.23,1.95-3.23,2.18v10.1c.73.12,3.23-2.27,3.23-2.97v-9.31Z"/>
            <path class="cls-4" d="M84.37,562.41c.45-.15,1.06-.23,1.49-.04.91.38.89,6.05.87,7.29-.02,1.4-.24,5.35-.49,6.53-.55,2.64-5.68,7.82-7.7,8.79-2.12,1.01-2.36-.38-2.51-2.64-.35-5.2-.6-11.58,2.77-15.25.64-.69,5.02-4.49,5.57-4.67ZM82.84,567.46c-.83-.2-3.23,2.4-3.23,2.97v9.31c.95.48,3.23-1.68,3.23-2.57v-9.7Z"/>
            <path class="cls-4" d="M176.29,377.98c.16-.69,7.52-6.8,8.49-7.07,1.9-.52,1.78,1.26,1.88,3.09.17,3.32.32,9.05-.97,11.91-1.21,2.67-5.55,6.28-7.73,7.95-.52.4-1.01,1-1.66.94v-16.83ZM183.08,376.2c-.73-.56-3.23,1.75-3.23,2.18v10.1c.8-.37,3.23-2.39,3.23-3.37v-8.91Z"/>
            <path class="cls-4" d="M200.55,145.92c.14-.62,7.79-7.08,8.65-7.26,2.59-.54,1.79,6.31,1.21,8.25-.26.87-1.11,1.67-1.11,2.58,0,1.12,1.98,3.62,1.89,4.3-.08.58-3.61,3.63-3.84,3.42-.5-2.06-3.15-5.5-1.77-7.5.33-.48,1.06-.68,1.28-1.21.14-.34.53-3.39.46-3.71-.34-1.48-3.04.6-3.23,2.3-.35,3.18.64,10.62-.04,13.02-.2.7-2.82,2.56-3.5,3.03v-17.23Z"/>
            <path class="cls-4" d="M86.03,667.3c.13.1.61,2.86.64,3.37.15,2.01-.16,9.71-.69,11.33-.64,1.97-2.94,4.14-4.34,5.38-1.94,1.71-5.25,5.27-5.61.29-.34-4.66-.5-11.56,2.28-15.06.92-1.16,6.59-6.2,7.72-5.3ZM79.6,675.37c-.49,2.11.36,6.87,0,9.31,1.26.2,2.27-.94,3.07-1.98.17-3.32.56-6.63.16-9.9-.43-.55-3.1,2-3.23,2.58Z"/>
            <path class="cls-4" d="M200.55,356.4c2.3-.88,6.57-6.49,8.6-6.73,2.64-.31,1.83,6.36,1.27,8.32-.22.78-1.34,2.15-1.36,2.56-.04.8,2.23,3.62,2.13,4.3-.07.46-3.21,3.35-3.86,2.84-.51-.39-2.29-4.74-2.29-5.57,0-1.84,1.66-1.93,1.91-2.83.29-1.05-.09-2.91.05-4.09-.27-.34-2.76,1.49-2.84,1.66-.65,1.36.48,11.35-.13,13.9-.2.83-2.64,2.98-3.49,3.05v-17.42Z"/>
            <path class="cls-4" d="M200.55,251.26c2.86-2.19,5.49-5.47,8.58-6.96,2.65-.48,1.88,6.54,1.29,8.35-.33,1.01-1.2,1.4-1.15,2.53.06,1.31,2.06,3.39,1.91,4.34-.08.52-3.2,3.16-3.64,3-.78-1.46-3.03-5.39-2.17-6.94s1.95-.82,1.93-4.29c0-.36-.16-2.11-.77-1.82-.12.06-2.02,1.66-2.11,1.78-1.02,1.5.25,11.48-.39,14.17-.23.95-2.61,2.74-3.49,3.05v-17.23Z"/>
            <path class="cls-4" d="M220.32,144.48c-.5-.38-.49-10.5-.38-12.04.3-4.09,2.83-6.32,5.41-8.42,1.13-.92,3.86-3.81,4.71-1.56.41,1.08.39,9.93.24,11.59-.25,2.78-1.73,4.82-3.4,6.52-1.08,1.1-5.34,4.86-6.58,3.91ZM226.74,127.11c-.78-.59-3.23,2.3-3.23,2.57v9.7c.88.34,3.23-2.17,3.23-2.97v-9.31Z"/>
            <path class="cls-4" d="M86.02,457.83c.5.38.49,10.5.38,12.04-.28,3.87-2.28,5.7-4.63,7.79-1.92,1.71-5.35,5.4-5.73.5-.24-3.16-.31-10.1.84-12.83.9-2.15,7.31-8.91,9.14-7.51ZM82.84,462.92c-.8-.07-3.23,2.09-3.23,2.97v9.31c.78.59,3.23-2.3,3.23-2.57v-9.7Z"/>
            <path class="cls-4" d="M200.55,566.47c.15-.62,7.93-7.11,8.65-7.25,2.66-.52,1.78,6.64,1.12,8.51-.22.62-1.26,2.02-1.26,2.3,0,.58,2.22,3.71,2.14,4.3s-3.62,3.63-3.84,3.42c-.33-1.86-2.88-5.28-2.12-7.13.22-.55,1.1-.85,1.48-1.38.94-1.33.61-2.95.64-4.56-.37-.46-2.61,1.35-2.9,1.79-1.05,1.57.28,11.49-.39,14.17-.24.95-2.72,2.42-3.5,3.04v-17.23Z"/>
            <path class="cls-4" d="M200.55,461.53c.14-.62,7.8-7.12,8.65-7.25,2.66-.4,1.8,6.59,1.11,8.51-.26.73-1.37,2.06-1.3,2.63.11.9,2,2.68,1.91,4.01-.06.84-3.06,3.63-3.58,3.21-.39-.31-2.2-5.2-2.21-5.98-.03-1.76,3.16-2.34,2.17-6.26-.38-1.5-3.02.64-3.2,2.3-.35,3.19.64,10.6-.04,13.02-.17.61-2.87,2.51-3.5,3.04v-17.23Z"/>
            <path class="cls-4" d="M353.22,450.6c-.17-.12-1.73-3.86-1.83-4.29-.83-3.89,1.3-2.91,1.72-4.65.28-1.17-.05-2.82.07-4.07-.15-.21-2.43,1.57-2.58,1.78-.92,1.34.1,11.1-.39,13.77-.1.56-.29.85-.6,1.24-.2.25-2.75,2.4-2.89,2.2v-16.82c0-.47.25-.7.47-1.01.46-.63,5.71-4.94,6.54-5.45.91-.56,2.71-1.85,3.01.12.17,1.08.11,4.74-.03,5.91-.16,1.43-1.59,3.51-1.54,3.92.13.98,2.11,3.08,1.85,4.34-.17.8-3.23,3.41-3.8,3.01Z"/>
            <path class="cls-4" d="M229.89,542.61c.56.83.53,9.56.41,11.2-.32,4.57-2.26,6.39-5.08,8.82-1.02.88-4.15,4.02-5.12,2.06-.27-.54-.28-10.7-.16-12.08.36-4.04,4.63-7.8,7.4-9.55.66-.42,1.91-1.4,2.55-.45ZM226.74,547.66c-4.19.94-3.8,5.97-3.57,10.12.04.65.06,2.33.82,2.16.71-.15,2.76-2.2,2.76-2.97v-9.31Z"/>
            <path class="cls-4" d="M346.71,18.81c.14-.59,7.61-6.85,8.28-6.93,2.4-.31,1.95,4.49,1.72,6.5-.17,1.56-1.58,3.65-1.52,4.33.07.92,1.87,3.15,1.88,4.03s-3.42,3.73-3.87,3.34c-.16-.14-1.64-4.03-1.74-4.41-.96-3.82,1.18-2.57,1.66-4.57.28-1.18-.05-2.82.07-4.07-.23-.32-2.38,1.49-2.58,1.79-.97,1.45.18,11.27-.47,14.09-.23,1.02-2.59,2.52-3.42,3.13v-17.23Z"/>
            <path class="cls-4" d="M228.27,332.71c1.54-.41,1.8.46,2,2.14.61,5.15.55,12.32-2.73,15.99-1.08,1.21-6.44,6.48-7.43,3.97-.34-.85-.28-11.75,0-13.08.53-2.53,6.24-8.5,8.16-9.02ZM226.74,337.79c-1.18.13-3.56,2.37-3.56,3.76v8.32c0,2.03,3.56-1.98,3.56-2.38v-9.7Z"/>
            <path class="cls-4" d="M346.71,334.42c.14-.59,7.53-6.73,8.33-6.86,2.36-.39,1.89,4.85,1.66,6.83-.18,1.55-1.56,3.32-1.53,3.93.05,1.13,1.88,3.17,1.89,4.04s-3.34,3.81-3.87,3.34c-.17-.15-1.72-4.32-1.79-4.73-.69-3.57,1.3-2.49,1.71-4.25.28-1.17-.05-2.82.07-4.07-.21-.28-2.2,1.24-2.44,1.57-.94,1.29-.36,7.92-.46,10.13-.04.83-.26,4.21-.39,4.67s-2.56,2.42-3.18,2.64v-17.23Z"/>
            <path class="cls-4" d="M344.77,126.32v14.06c0,3.42-5.56,8.89-7.96,10.05-1.32.64-2.18.73-2.41-1.32-.46-4.25.33-9.81.07-14.21.12-.43,2.85-2.83,3.5-2.64v13.07c1.24.1,2.22-1.08,2.84-2.26l.39-14.09c1.11-.92,2.21-2.36,3.56-2.66Z"/>
            <path class="cls-4" d="M344.77,20.59v14.06c0,1.85-1.65,4.49-2.76,5.73-1.18,1.31-5.84,5.83-7.29,4.59-.68-.58-.16-13.35-.24-15.39.17-.69,2.73-2.87,3.5-3.04v13.46c4.34-1.01,2.71-7.17,2.9-11.3.05-.99.24-4.42.4-5.06.17-.71,2.73-2.68,3.5-3.04Z"/>
            <path class="cls-4" d="M322.46,162.36v-16.83c1.89-1.65,7.3-7.78,9.49-6.88.43.17.46.46.53.94.24,1.61.16,10.97-.15,12.49-.09.46-.63,1.66-.87,2.1-1,1.85-6.18,6.7-7.86,7.8-.39.26-.61.53-1.14.39ZM329.25,152.66c.29-2.03,0-6.01,0-8.32,0-1.76-3.56,1.32-3.56,1.58v10.49c1.18-.41,3.35-2.32,3.56-3.76Z"/>
            <path class="cls-4" d="M322.46,267.69v-16.83c1.96-1.54,5.74-5.97,7.75-6.75.86-.33,1.92-.31,2.21.89.26,1.09.23,10.35.05,11.78-.44,3.47-6.39,8.9-8.86,10.53-.39.26-.61.53-1.14.39ZM325.69,261.75c.91.05,3.56-3.05,3.56-3.76v-8.32c0-1.65-3.56,1.01-3.56,1.98v10.1Z"/>
            <path class="cls-4" d="M198.61,253.44v14.45c0,3.11-5.83,8.5-8.01,9.6-.58.3-1.4.68-1.93,0-.95-1.21-.16-13.03-.35-15.48l3.5-3.03v13.46c1.18.03,2.91-1.66,3.17-3.05.62-3.37-.63-10.6.12-13.31.12-.43,2.85-2.83,3.5-2.64Z"/>
            <path class="cls-4" d="M322.46,57.02v-17.23c1.62-1.15,7.76-7.74,9.37-6.75.26.16.5.55.59.89.3,1.23.21,9.72.07,11.4-.19,2.22-1.25,3.76-2.43,5.34l-7.6,6.34ZM325.69,50.69c.91.28,3.56-2.61,3.56-3.37v-8.71c0-1.73-3.56,1.5-3.56,1.98v10.1Z"/>
            <path class="cls-4" d="M198.61,358.77v14.85c0,.45-1.54,3.42-1.94,3.96-.84,1.12-5.99,5.55-7.03,5.69s-1.28-1.02-1.38-2.11c-.21-2.27-.31-11.45,0-13.47.13-.83,2.68-3,3.56-2.97v13.07c5.59-1.28,2.42-11.33,3.23-16.35,1.11-.92,2.21-2.36,3.56-2.66Z"/>
            <path class="cls-4" d="M191.81,574.19v13.07c.95.3,2.95-1.73,3.17-2.66.76-3.17-.64-10.21.13-13.31.24-.95,2.72-2.42,3.5-3.04v14.85c0,2.61-5.98,8.5-7.85,9.39s-2.32-.08-2.5-2.27c-.19-2.3-.32-10.65,0-12.66.17-1.09,2.58-3.01,3.55-3.37Z"/>
            <path class="cls-4" d="M322.46,372.63v-17.23c2.16-1.39,5.96-6.03,8.08-6.76,1.54-.52,1.84.33,1.96,1.98.2,2.62.23,10.28-.54,12.46-.31.89-1.12,1.97-1.59,2.81l-7.92,6.74ZM325.69,366.3c.94.04,3.56-2.48,3.56-3.37v-8.71c0-1.9-3.56,1.4-3.56,1.98v10.1Z"/>
            <path class="cls-4" d="M198.61,463.32v14.85c0,2.79-5.97,8.29-7.96,9.26-1.87.91-2.19.23-2.39-2.14s-.32-10.55,0-12.66c.2-1.32,2.52-2.93,3.55-3.38v13.07c.95.3,2.95-1.73,3.17-2.66.76-3.19-.63-10.11.13-13.3.23-.95,2.61-2.74,3.49-3.05Z"/>
            <path class="cls-4" d="M344.77,336.2v14.06c0,.34-.75,2.69-.96,3.18-.85,1.93-6.3,7.25-7.94,7.34-1.13.06-1.33-.07-1.47-1.39-.23-2.25-.29-11.83.02-13.87.2-1.32,2.52-2.93,3.55-3.38v13.46c5.81-1.57,2.09-11.57,3.29-16.36.17-.69,2.73-2.87,3.5-3.04Z"/>
            <path class="cls-4" d="M198.61,147.71v14.85c0,1.92-3.02,5.17-4.23,6.3-1.62,1.52-5.71,5.73-6.12,1.23-.21-2.3-.3-11,.01-13.07.2-1.32,2.52-2.93,3.55-3.38v13.07c.95.3,2.95-1.73,3.17-2.66.7-2.91-.66-11.37.22-13.58.21-.51,2.7-2.6,3.4-2.77Z"/>
            <path class="cls-4" d="M322.46,460.15c2.39-1.09,6.73-6.87,9.21-6.35.38.08.6.22.82.62l-.97,2.17c.14.13.92-.26.99.22.22,1.36.12,7.5-.02,9.09-.2,2.3-1.38,4.25-2.76,5.73l-7.27,5.95v-17.42ZM325.69,471.24c.91.28,3.56-2.61,3.56-3.37v-8.32c0-1.73-3.56,1.04-3.56,1.58v10.1Z"/>
            <path class="cls-4" d="M344.45,246.9c-.31,2.32-3.51,5.51-5.07,6.86-1.02.87-3.64,3.5-4.66,1.89-.89-1.4.07-12.82-.3-15.4,1.2-.8,2.22-2.37,3.56-2.65v13.07c.82.15,2.63-1.38,2.84-2.26.78-3.25-.74-10.9.28-13.88.27-.78,2.71-2.11,3.34-2.87-.44,4.6.59,10.86,0,15.25Z"/>
            <path class="cls-4" d="M247.44,325.11v8.12c0,.29-3.22,3.43-3.56,2.97-.31-3.74.07-7.48.01-11.3-.03-2.07-1.04-4.4.3-6.33.53-.76,2.37-2.15,3.24-2.17v7.52l3.27-10.84,3.51-3.02c.47.72-3.13,9.3-3.16,10.96-.02,1.34,3.51,4.99,3.51,5.87,0,.68-3.18,3.43-3.7,3.31l-3.44-5.1Z"/>
            <path class="cls-4" d="M103.53,344.52v8.51c0,.27-3.03,3.04-3.56,2.97v-17.23c0-.27,3.08-2.93,3.56-2.97v8.32l3.6-11.63,3.51-3.02c.38.57-3.3,9.67-3.23,11.26.08,1.77,3.38,4.41,3.26,5.96-.06.8-2.92,3.21-3.68,2.93-.98-.36-2.3-4.46-3.46-5.1Z"/>
            <path class="cls-4" d="M103.53,554c.47.09.43-.67.56-1.09.86-2.67,1.76-7.8,2.86-9.97.52-1.03,2.7-2.77,3.7-3.19.34.43-3.38,9.56-3.24,11.27.1,1.16,3.23,4.27,3.24,5.56,0,.76-3.13,3.49-3.7,3.39l-3.42-5.57v9.11c-1.32.42-2.2,2.27-3.56,2.38v-17.42c1.42-.29,2.19-2.29,3.56-2.38v7.92Z"/>
            <path class="cls-4" d="M103.53,449.46l3.54-11.6,3.41-2.65c-.16,2.61-3.18,8.71-3.07,10.85.09,1.81,3.44,4.8,3.26,6.32-.03.28-3.69,3.17-3.9,3l-3.25-5.54v8.51c0,.37-2.99,3.03-3.56,2.97v-17.23c0-.27,3.08-2.93,3.56-2.97v8.32Z"/>
            <path class="cls-4" d="M247.44,113.25l3.28-10.83c.63-1.23,2.38-2.52,3.51-3.03.48.63-3.25,9.59-3.23,10.9.02,1.17,3.36,4.61,3.25,5.92-.07.89-2.9,3.26-3.69,2.94s-2.29-4.4-3.13-5.11v8.12c0,.52-2.98,2.94-3.56,3.37v-17.23c0-.27,3.03-3.04,3.56-2.97v7.92Z"/>
            <path class="cls-4" d="M243.88,230.87v-17.23c0-.29,3.14-3.06,3.56-2.57.19.56-.32,1.18-.32,1.38v6.93c.47.09.43-.67.56-1.09.85-2.64,2-8.58,3.04-10.54.65-1.24,2.5-2.2,3.51-3.02.42.64-3.13,9.37-3.16,10.96-.03,1.47,3.76,5.04,3.47,6.21-.08.32-3.28,3.05-3.65,2.96-.83-.19-2.9-5.06-3.28-5.08-.91-.05.08,6.74-.23,8.03-.23.95-2.61,2.74-3.49,3.05Z"/>
            <path class="cls-4" d="M247.11,534.2c.63-.12.51-.86.68-1.35,1.64-4.8,1.82-11.05,6.43-12.91.45.59-3.27,9.42-3.21,10.9.05,1.41,3.62,5.06,3.51,5.87-.66,1.01-2.98,3.31-3.96,3.05-.41-.11-2.32-4.72-3.13-5.17v8.12c0,.96-2.9,2.63-3.56,3.37v-17.23c0-.24,2.64-2.75,3.23-2.57v7.92Z"/>
            <path class="cls-4" d="M91.89,359.17c.42.53,2.32-1.14,2.61-1.76.53-1.17.05-2.26.6-3.22.23-.39,3.27-2.91,3.58-2.54.15,5.98-3.36,9.63-7.34,12.2-1.67,1.08-2.73,1.63-3.01-1.3-.31-3.22-.28-10.76.92-13.54.84-1.94,5.47-6.5,7.16-7.07,2.42-.81,2.86,2.91,1.97,4.4-.1.17-2.61,2.47-2.78,2.54-.83.36-.2-1.59-1.28-1.59-.57,0-2.43,1.93-2.43,2.59v9.31Z"/>
            <path class="cls-4" d="M235.47,549.25c.6.72,2.63-1.5,2.93-2.16.54-1.18.09-2.29.37-2.91.1-.22,3.27-2.76,3.49-2.45.32,3.81-.86,6.29-3.08,8.7-1.2,1.3-5.96,6.07-6.97,3.42-.84-2.21-.38-11.92.62-14.37.74-1.82,5.94-7.1,7.42-7.56,1.11-.35,1.68.04,1.95,1.39.79,3.98-1.3,3.97-3.32,6.05-.49-.45.34-2.21-.65-1.98-.7.16-2.74,2.21-2.74,2.98v8.91Z"/>
            <path class="cls-4" d="M91.89,464.5c.39.5,2.66-1.47,2.84-2.26.21-.9-.15-1.83.37-2.72.17-.29,3.06-2.82,3.26-2.54.92,5.8-3.33,9.81-7.01,12.2-1.06.69-2.65,1.75-3-.53-.29-1.86-.18-8.58-.02-10.7.15-1.99.98-4.3,2.12-5.72.56-.7,5.66-4.96,6.22-5.09,1.89-.47,2.43,3.32,1.52,4.67-.36.53-2.99,2.87-3.37,2.4.76-3.63-2.91.32-2.91.59v9.7Z"/>
            <path class="cls-4" d="M235.47,233.84c.36,1.56,2.79-1.05,3.09-2.16.24-.88,0-1.72.44-2.62.2-.42,3.06-2.82,3.26-2.54.19,2.7-.44,5.7-1.94,7.72-.57.76-4.89,4.71-5.59,5.04-1.82.85-2.52.4-2.79-1.91-.32-2.78-.13-11.02.99-13.37.86-1.81,6.87-7.85,8.45-7.33,1.1.37,1.02,2.96.9,4.12-.08.82-2.75,2.56-3.42,3.35l-.16-1.98c-.9-.34-3.23,2.18-3.23,2.97,0,1.9-.31,7.36,0,8.71Z"/>
            <path class="cls-4" d="M91.89,253.83c.23.32,2.34-1.38,2.59-1.77.83-1.3.39-3,.71-3.69.1-.21,3.32-2.69,3.49-2.45.26,5.52-2.32,8.24-5.72,11.01-1.27,1.04-4.3,4.18-4.65.69-.28-2.77-.2-11.47.72-13.82.76-1.93,7.04-8.17,8.45-7.74.8.24,1.27,2.38,1.22,3.32-.09,1.86-2.38,3.05-3.43,4.15.26-4.17-3.39.07-3.39.6v9.7Z"/>
            <path class="cls-4" d="M91.89,569.44c.35.48,2.55-1.83,2.74-2.38.36-1.01-.12-2.03.49-2.96.15-.23,2.83-2.48,3.07-2.57.58-.22.45.13.49.59.43,4.91-4.33,10.23-7.66,12.01-1.65.88-2.53,1.04-2.7-1.32-.22-3.05-.32-10.85.71-13.4.77-1.9,6.08-7.24,7.62-7.72,1.84-.57,2.42,3.31,1.51,4.66-.15.22-2.42,2.33-2.57,2.4-.83.36-.2-1.6-1.29-1.6-.45,0-2.42,2.05-2.42,2.59v9.7Z"/>
            <path class="cls-4" d="M235.47,444.31c1.12.04,2.93-1.3,3.17-2.66.13-.76-.09-1.93.14-2.41.1-.22,3.27-2.76,3.49-2.45.2,2.64-.39,5.12-1.77,7.13-.76,1.1-4.85,4.92-5.87,5.48-1.99,1.08-2.49.35-2.7-2.11-.3-3.63-.3-10.76,1.35-13.79.7-1.3,5.57-5.97,6.72-6.42,2.15-.84,2.43.34,2.31,2.8-.12,2.52-2.15,2.92-3.43,4.54-.49-.41.33-2.74-.64-2.37-.58.22-2.75,2.23-2.75,2.96v9.31Z"/>
            <path class="cls-4" d="M235.47,339.17c.35,1.5,2.82-1.16,3.09-2.16.24-.87,0-1.72.44-2.62.2-.42,3.06-2.82,3.26-2.54.26,2.72-.42,5.67-1.94,7.72-.6.81-4.61,4.47-5.38,4.89-2.6,1.39-2.83-.06-3.03-2.89-.21-3.01-.18-8.96.85-11.66.84-2.18,7.37-8.86,9.14-7.51.48.37.54,3.73.07,4.53-.1.17-2.61,2.47-2.78,2.54-1.02.47.08-2.35-.96-1.97-.57.21-2.75,2.23-2.75,2.96,0,1.88-.31,7.39,0,8.71Z"/>
            <path class="cls-4" d="M91.89,674.38c.34.46,2.39-1.68,2.61-2.15.43-.96.18-1.74.47-2.59s3.68-3.66,3.72-2.58c-.31,2.56-.41,4.44-1.78,6.54-.85,1.3-5.36,5.5-6.55,5.84-1.57.45-1.89.21-2.03-1.68-.24-3.2-.35-10.98.83-13.64.75-1.69,5.78-6.6,7.17-7.06,2.05-.68,2.5,1.43,2.29,3.58-.13,1.33-2.54,2.44-3.34,3.45.31-4.11-3.39.13-3.39.6v9.7Z"/>
            <path class="cls-4" d="M235.47,128.7c.35.45,2.53-1.26,2.81-1.7.72-1.11.17-2.69.49-3.37.1-.21,3.33-2.68,3.49-2.45.63,5.51-3.21,9.35-6.69,11.81-3.28,2.32-3.45.86-3.68-3.28-.26-4.62-.1-10.38,2.77-13.67,1.1-1.26,5.86-5.74,7.22-4.71.39.29.54,4.1.3,4.62-.13.26-4.56,4.32-3.49.87-.95-.71-3.23,2.32-3.23,2.97v8.91Z"/>
            <path class="cls-4" d="M315.99,363.13l-4.82,8.54c-.92,1.35-2.19-.23-3.25.36-.87.48-2.65,5.36-3.08,5.36h-5.01c1.13-1.58,7.53-14.26,8.25-14.26h7.92Z"/>
            <path class="cls-4" d="M169.82,595.18c.11.6-.18.87-.39,1.31-.47,1.01-3.86,6.64-4.44,7.23-1.26,1.27-2.08-.36-3.26.36-.7.43-2.71,5.35-3.07,5.35h-4.69c-.1-.6.18-.87.38-1.31,2.02-4.34,5.35-8.63,7.54-12.95h7.92Z"/>
            <path class="cls-4" d="M315.99,258.59c-.82,1.29-4.22,8.13-4.92,8.62s-2.56-.34-3.49.29-1.58,4.53-3.22,5.17c-.81.31-3.17.32-4.07.18-.45-.07-.56.22-.48-.59,2.66-4.47,5.53-8.9,7.76-13.67h8.41Z"/>
            <path class="cls-4" d="M169.82,385.31c.11.59-.18.87-.38,1.31-.4.85-4.2,7.47-4.53,7.71-.67.48-2.77-.3-3.42.17-.5.36-1.89,4.64-2.87,4.99-.47.17-4.76.66-4.95.47l7.9-13.89c2.62-.68,5.53-.29,8.27-.76Z"/>
            <path class="cls-4" d="M315.99,153.25c-.82,1.29-4.23,8.13-4.92,8.62s-2.77-.3-3.42.17c-.29.21-1.77,3.93-2.48,4.68-.98,1.03-3.57,1-4.86.79-.45-.07-.56.22-.48-.59,1.34-1.36,7.55-13.67,8.24-13.67h7.92Z"/>
            <path class="cls-4" d="M315.99,468.46c-1.02,1.7-4.24,8.39-5.67,8.7-.78.17-1.81-.23-2.53.07-.76.31-2.14,4.43-2.81,4.88-.62.43-3.89.73-4.69.6-.44-.08-.56.23-.47-.59l7.76-13.67h8.41Z"/>
            <path class="cls-4" d="M169.82,490.24c.08.72-.41,1.15-.71,1.7-.7,1.3-4.12,7.29-4.96,7.42s-1.51-.71-2.4-.22c-.96.53-2.18,4.54-2.66,4.88-.4.28-4,.59-4.63.48-.44-.08-.56.23-.47-.59,1.23-1.44,7.23-13.67,7.92-13.67h7.92Z"/>
            <path class="cls-4" d="M169.82,174.63l-4.67,8.34c-.85.92-2.94-.07-3.68.45-.34.24-1.78,4.3-2.42,4.95-.69.7-3.67.66-4.6.51-.45-.07-.56.22-.47-.59,1.27-1.42,7.23-13.67,7.92-13.67h7.92Z"/>
            <path class="cls-4" d="M315.99,47.92c-1.08,1.57-3.95,7.83-5.18,8.51-1.01.55-2.43-.18-3.23.41-.7.51-2.03,4.56-2.8,4.88-1.17.49-3.4-.36-4.79.47-.51-.32,0-.71.14-1.01,2.14-4.51,5.48-8.55,7.45-13.25h8.41Z"/>
            <path class="cls-4" d="M169.82,280.37c-.82,1.28-4.23,8.13-4.92,8.62-.84.59-2.73-.46-3.16-.13-.77.58-2.11,4.91-3.14,5.29-1.26.47-3.13-.4-4.46.48-.47-.29-.02-1.04.14-1.42,1.75-4.17,5.59-8.69,7.62-12.84h7.92Z"/>
            <path class="cls-4" d="M344.77,447.08v7.72c0,.39-.64,2.79-.84,3.33-.76,1.99-7.12,8.39-8.63,7.9-.22-.07-.88-.82-.88-.94v-9.31c3.12-.39,3.95,1.06,3.56,4.75,3.39-1.08,2.58-3.39,2.99-6.44.2-1.48,1.98-5.34,2.84-6.42.31-.39.43-.74.97-.6Z"/>
            <path class="cls-4" d="M72.16,468.46v13.46l2.91-2.38-.07,3.88-6.4,5.23v-17.23c0-.27,3.03-3.04,3.56-2.97Z"/>
            <path class="cls-4" d="M216.07,238.39v13.07l2.91-1.98-.16,3.56-6.3,5.15v-17.23c0-.26,2.91-2.91,3.56-2.57Z"/>
            <path class="cls-4" d="M72.16,363.13v13.46l2.91-2.38c.99,5.06-3.85,6.56-6.46,9.11v-17.23c0-.27,3.03-3.04,3.56-2.97Z"/>
            <path class="cls-4" d="M72.16,257.79v13.46l2.91-2.38c-.09,1.08.23,2.58-.16,3.57-.28.7-5.31,4.71-6.31,5.15v-16.83c0-.38,2.88-3.2,3.56-2.97Z"/>
            <path class="cls-4" d="M72.16,573.4v13.46l2.91-2.37-.16,3.56-6.31,5.15v-17.42c1.32-.42,2.2-2.27,3.56-2.38Z"/>
            <path class="cls-4" d="M72.16,678.34v13.46l2.91-2.37c-.09,1.08.23,2.58-.16,3.56-.28.7-5.31,4.71-6.31,5.15v-16.83c0-.27,2.88-3.16,3.56-2.97Z"/>
            <path class="cls-4" d="M212.51,451.24c.14-.6,2.6-2.57,3.23-2.97l.33,13.07,2.91-1.98c-.11,1.17.32,2.76-.3,3.79-.89,1.5-4.88,3.81-6.17,5.32v-17.23Z"/>
            <path class="cls-4" d="M212.51,135.63c.12-.52,3.34-3.28,3.56-2.97l-.32,13.46c.82.31,2.99-3.37,3.23-1.39.07.58.08,1.76-.06,2.31-.2.82-5.28,5.08-6.41,5.42v-16.83Z"/>
            <path class="cls-4" d="M212.51,556.18c.12-.52,3.33-3.27,3.56-2.97l-.32,13.46,3.07-2.37c.25,1,.37,2.93-.14,3.79-.89,1.5-4.88,3.81-6.17,5.32v-17.23Z"/>
            <path class="cls-4" d="M215.74,343.72v13.07c.8.53,2.83-2.55,3.23-1.98l-.16,3.56-6.31,5.15v-17.23c0-.24,2.77-2.62,3.23-2.57Z"/>
            <path class="cls-4" d="M110.64,224.14c.36.47-3.37,9.69-3.24,11.27.1,1.13,3.56,4.5,3.22,5.89-.09.37-3.2,3.14-3.67,3.06-.74-1.89-3.23-4.38-3.04-6.46.09-.98,2.6-9.71,3.04-10.57l3.7-3.19Z"/>
            <path class="cls-4" d="M250.4,434.73c-.25-.18-2.99-5.34-2.91-5.97,2.06-5.26,1.89-11.64,6.9-14.15-.05,2.33-3.45,9.64-3.33,11.22.11,1.4,3.61,4.94,3.47,5.95-.72.86-3.18,3.63-4.13,2.95Z"/>
            <path class="cls-4" d="M106.8,664.83c-.51-2.22-3.1-4.05-2.89-6.38.1-1.12,2.7-9.77,3.22-10.75.69-1.3,2.41-2.01,3.36-3.01,0,2.65-3.26,9.24-3.08,11.27.12,1.39,3.49,4.59,3.21,5.88-.12.58-3.33,3.34-3.82,3Z"/>
            <path class="cls-4" d="M103.53,651.02v17.23c0,.26-3.01,2.78-3.56,2.57v-16.83c0-.27,2.88-3.16,3.56-2.97Z"/>
            <path class="cls-4" d="M103.53,230.47v17.42c-1.32.42-2.2,2.27-3.56,2.38v-16.83c0-.38,2.88-3.2,3.56-2.97Z"/>
            <path class="cls-4" d="M243.88,423.91c.17-.75,2.62-2.36,3.23-2.97l.22,16.79c-.05,1.16-2.62,2.67-3.46,3.4v-17.23Z"/>
            <path class="cls-4" d="M240.64,148.9v1.98c.18.24,2.52-2,1.95.2-.07.26-1.76,1.22-1.88,1.47-.38.84.5,3.45-1.36,3.48v-1.98c-.13-.21-1.65,1.57-1.94,1.19-.75-1,1.74-2.49,1.89-3.03.3-1.12-.41-3.2,1.34-3.3Z"/>
            <path class="cls-4" d="M240.64,378.97v1.98c.08.12,2.18-2.27,1.95-.59-.19,1.34-1.46,1.32-1.79,2.17-.41,1.05.22,3.14-1.45,3.17l-.16-1.98-2.1,1.58c-.2-1.66,1.75-2.2,2.1-3.17.4-1.1-.19-3.12,1.46-3.16Z"/>
            <path class="cls-4" d="M211.54,299.37c.1.12-.07,1.55,0,1.98.3-.29,2.56-2.64,2.25-1-.24,1.27-1.99,1.82-2.19,2.27-.38.84.5,3.46-1.36,3.48v-1.98c-.13-.21-1.65,1.57-1.94,1.19-.75-.99,1.62-2.44,1.77-2.77.29-.63.19-2.9.51-3.14.1-.07.91-.07.94-.03Z"/>
            <path class="cls-4" d="M240.64,274.03v1.98c.23-.3,2.18-2.18,1.95-.59-.18,1.28-1.69,1.44-1.88,1.86-.37.81.51,3.47-1.36,3.49v-1.98c-.13-.21-1.65,1.57-1.94,1.19-.75-1,1.75-2.49,1.89-3.03.32-1.21-.53-3.21,1.34-2.91Z"/>
            <path class="cls-4" d="M153.65,329.87v1.98c.08.12,2.18-2.27,1.95-.59-.18,1.33-1.47,1.35-1.79,2.17-.55,1.4.61,3.17-1.45,3.17v-1.98s-1.94,1.19-1.94,1.19c-.38-1.68,1.45-1.9,1.78-2.77.41-1.05-.22-3.14,1.45-3.17Z"/>
            <path class="cls-4" d="M211.54,384.51v1.98c.31-.29,2.57-2.64,2.26-1-.24,1.27-1.99,1.82-2.19,2.27-.38.84.5,3.46-1.36,3.48v-1.98c-.13-.21-1.65,1.57-1.94,1.19-.75-.99,1.58-2.26,1.78-2.77.41-1.05-.22-3.14,1.45-3.17Z"/>
            <path class="cls-4" d="M240.64,399.17v1.98c.08.12,2.18-2.27,1.95-.59-.19,1.34-1.46,1.32-1.79,2.17-.41,1.05.22,3.14-1.45,3.17v-1.98s-1.94,1.19-1.94,1.19c-.38-1.68,1.45-1.9,1.78-2.77.41-1.05-.22-3.14,1.45-3.17Z"/>
            <path class="cls-4" d="M299.82,97.81c.1.12-.07,1.55,0,1.98.22-.3,2.17-2.18,1.94-.59-.17,1.15-1.45,1.25-1.78,2.18-.4,1.11.18,3.11-1.46,3.16v-1.98c-.13-.21-1.65,1.57-1.94,1.19-.75-.99,1.57-2.26,1.78-2.77.25-.63.21-2.92.51-3.15.1-.07.91-.07.94-.03Z"/>
            <path class="cls-4" d="M240.64,293.83v1.98c.32.46,2.21-2.39,1.95-.59-.2,1.38-1.48,1.54-1.78,2.17-.39.8.07,2.08-.31,2.78-.64,1.18-1.54.17-1.14-1.2l-1.94.79c-.43-1.68,1.58-1.51,1.89-2.64s-.41-3.2,1.34-3.3Z"/>
            <path class="cls-4" d="M299.82,307.69v1.98c.08.12,2.18-2.27,1.95-.59-.19,1.34-1.46,1.32-1.79,2.17-.41,1.05.22,3.14-1.45,3.17v-1.98c-.09-.14-1.6,1.63-1.94,1.19-.71-.93,1.53-2.1,1.77-2.77.4-1.11-.18-3.11,1.46-3.16Z"/>
            <path class="cls-4" d="M240.64,503.71v1.98c.32.46,2.21-2.39,1.95-.59-.2,1.38-1.5,1.56-1.78,2.18s-.2,2.91-.51,3.15c-.91.68-1.14-.54-.95-1.56l-1.94,1.19c-.64-2.06,1.57-1.86,1.88-3.04s-.41-3.2,1.34-3.3Z"/>
            <path class="cls-4" d="M240.64,464.11v1.98c.08.12,2.21-2.28,1.95-.59-.18,1.16-1.45,1.25-1.78,2.18-.4,1.11.18,3.11-1.46,3.16v-1.98c-5.17,3.08-.46-.78-.17-1.59.4-1.11-.18-3.11,1.46-3.16Z"/>
            <path class="cls-4" d="M211.54,424.51v1.98c.08.12,2.18-2.27,1.95-.59-.19,1.34-1.46,1.32-1.79,2.17-.41,1.05.22,3.14-1.45,3.17v-1.98c-.13-.21-1.65,1.57-1.94,1.19-.75-.99,1.58-2.26,1.78-2.77.41-1.05-.22-3.14,1.45-3.17Z"/>
            <path class="cls-4" d="M299.82,412.63v1.98c.08.12,2.21-2.28,1.95-.59-.18,1.16-1.45,1.25-1.78,2.18-.4,1.11.18,3.11-1.46,3.16v-1.98s-1.94,1.19-1.94,1.19c-.38-1.68,1.45-1.9,1.78-2.77.41-1.05-.22-3.14,1.45-3.17Z"/>
            <path class="cls-4" d="M240.64,189.29v1.98c.23-.3,2.18-2.18,1.95-.59-.18,1.28-1.69,1.44-1.88,1.86-.37.81.51,3.47-1.36,3.49v-1.98c-.13-.21-1.65,1.57-1.94,1.19-.75-.99,1.58-2.26,1.78-2.77.41-1.05-.22-3.14,1.45-3.17Z"/>
            <path class="cls-4" d="M240.64,169.49v1.98c.43-.69,2.48-2.16,1.95-.2-.07.26-1.76,1.22-1.88,1.47-.38.84.5,3.45-1.36,3.48v-1.98c-.13-.21-1.65,1.57-1.94,1.19-.75-.99,1.62-2.43,1.78-2.77.44-.93-.24-3.16,1.45-3.17Z"/>
            <path class="cls-4" d="M240.64,359.17v1.98c.23-.3,2.18-2.18,1.95-.59-.18,1.28-1.69,1.44-1.88,1.86-.37.81.51,3.47-1.36,3.49v-1.98c-.13-.21-1.65,1.57-1.94,1.19-.75-.99,1.58-2.26,1.78-2.77.41-1.05-.22-3.14,1.45-3.17Z"/>
            <path class="cls-4" d="M211.54,279.58v1.98c.15.23,2.18-2.26,1.95-.59-.18,1.34-1.46,1.32-1.79,2.17-.41,1.05.22,3.14-1.45,3.17v-1.98c-.09-.14-1.6,1.63-1.94,1.19-.71-.93,1.53-2.1,1.77-2.77.4-1.11-.18-3.11,1.46-3.16Z"/>
            <path class="cls-4" d="M211.54,489.45v1.98c.23-.3,2.18-2.18,1.95-.59-.18,1.28-1.69,1.44-1.88,1.86-.37.81.51,3.47-1.36,3.49v-1.98c-.13-.21-1.65,1.57-1.94,1.19-.75-.99,1.58-2.26,1.78-2.77.41-1.05-.22-3.14,1.45-3.17Z"/>
            <path class="cls-4" d="M281.07,441.14c.09.11-.06,1.2,0,1.59.13.23,2.18-2.26,1.94-.59-.2,1.38-1.48,1.54-1.78,2.17-.39.8.07,2.08-.31,2.78-.64,1.18-1.54.17-1.14-1.2l-1.94.79c-.29-1.71,1.47-1.73,1.79-2.36.38-.77-.07-2.1.31-2.79.24-.44,1.02-.53,1.14-.39Z"/>
            <path class="cls-4" d="M240.64,483.91v1.98c.15.23,2.18-2.26,1.95-.59-.18,1.34-1.46,1.32-1.79,2.17-.41,1.05.22,3.14-1.45,3.17v-1.98c-.09-.14-1.6,1.63-1.94,1.19-.71-.93,1.53-2.1,1.77-2.77.4-1.11-.18-3.11,1.46-3.16Z"/>
            <path class="cls-4" d="M299.82,202.75v1.98c.15.23,2.18-2.26,1.95-.59-.18,1.34-1.46,1.32-1.79,2.17-.41,1.05.22,3.14-1.45,3.17v-1.98c-.09-.14-1.6,1.63-1.94,1.19-.71-.93,1.53-2.1,1.77-2.77.4-1.11-.18-3.11,1.46-3.16Z"/>
            <path class="cls-4" d="M211.54,404.31v1.98c.08.12,2.18-2.27,1.95-.59-.19,1.34-1.46,1.32-1.79,2.17-.41,1.05.22,3.14-1.45,3.17v-1.98c-.09-.14-1.6,1.63-1.94,1.19-.7-.91,1.49-2.09,1.76-2.78.39-1.01.03-3.16,1.47-3.15Z"/>
            <path class="cls-4" d="M153.65,434.81v1.98c.08.12,2.2-2.27,1.95-.59-.2,1.28-1.69,1.44-1.88,1.86-.37.82.51,3.47-1.36,3.49v-1.98c-.13-.21-1.65,1.57-1.94,1.19-.75-.99,1.58-2.26,1.78-2.77.41-1.05-.22-3.14,1.45-3.17Z"/>
            <path class="cls-4" d="M211.54,529.05v2.37c.15-.33,2.81-2.57,2.26-1-.3.88-1.87,1.71-2.1,2.18-.39.8.07,2.09-.31,2.78-.23.43-.97.55-1.14.38-.22-.21.9-1.78-.17-1.59-.5-.1-1.41,1.68-1.77,1.19-.75-.99,1.61-2.43,1.77-2.77.45-.93-.17-3.53,1.46-3.56Z"/>
            <path class="cls-4" d="M211.54,509.25v1.98c.08.12,2.2-2.27,1.95-.59-.2,1.28-1.69,1.44-1.88,1.86-.37.82.51,3.47-1.36,3.49v-1.98c-.13-.21-1.65,1.57-1.94,1.19-.75-.99,1.58-2.26,1.78-2.77.41-1.05-.22-3.14,1.45-3.17Z"/>
            <path class="cls-4" d="M240.64,254.23v1.98c.15.23,2.18-2.26,1.95-.59-.18,1.34-1.46,1.32-1.79,2.17-.41,1.05.22,3.14-1.45,3.17v-1.98c-.09-.14-1.6,1.63-1.94,1.19-.82-1.06,1.79-2.27,1.87-2.45.37-.82-.51-3.47,1.36-3.49Z"/>
            <path class="cls-4" d="M153.65,539.75v1.98c.08.12,2.2-2.27,1.95-.59-.2,1.28-1.69,1.44-1.88,1.86-.32.69.4,3.45-1.19,3.49-.39,0-.03-1.41-.17-1.59-.59-.39-1.66,1.16-1.94.79-.7-.94,1.54-2.13,1.77-2.77.4-1.11-.18-3.11,1.46-3.16Z"/>
            <path class="cls-4" d="M96.74,379.37v1.98c.2.33,2.52-2.8,2.27-.99-.19,1.35-1.74,1.56-2.1,2.57-.34.94.08,3.13-1.29,3.17-.39.01-.03-1.41-.17-1.59-.59-.39-1.66,1.16-1.94.79-.72-.96,1.81-2.34,2.09-3.17.36-1.05-.21-2.83,1.14-2.76Z"/>
            <path class="cls-4" d="M211.54,214.63v1.98c.08.13,2.59-2.56,1.95-.2-.07.26-1.76,1.22-1.88,1.47-.38.84.5,3.45-1.36,3.48v-1.98c-.13-.21-1.65,1.57-1.94,1.19-.75-.99,1.58-2.26,1.78-2.77.41-1.05-.22-3.14,1.45-3.17Z"/>
            <path class="cls-4" d="M153.65,224.92c.1.12-.07,1.55,0,1.98,4.61-3.04.24.88.06,1.27-.38.83.5,3.46-1.36,3.48v-1.98c-.13-.21-1.65,1.57-1.94,1.19-.75-.99,1.57-2.26,1.78-2.77.25-.63.21-2.92.51-3.15.1-.07.91-.07.94-.03Z"/>
            <path class="cls-4" d="M281.07,126.32v1.98c.08.12,2.2-2.27,1.95-.59-.2,1.28-1.69,1.44-1.88,1.86-.37.82.51,3.47-1.36,3.49v-1.98c-.13-.21-1.65,1.57-1.94,1.19-.77-1.03,1.89-2.49,2.11-3.17.25-.76-.74-2.65,1.12-2.76Z"/>
            <path class="cls-4" d="M211.54,174.63c.1.12-.07,1.55,0,1.98l1.78-1.58c.95,1.91-1.16,1.83-1.62,2.77-.6,1.24.65,3.19-1.46,3.17l-.17-1.59c-.51-.16-1.37,1.72-1.77,1.19-.75-.99,1.62-2.44,1.77-2.77.29-.63.19-2.9.51-3.14.1-.07.91-.07.94-.03Z"/>
            <path class="cls-4" d="M281.07,336.59c.09.11-.06,1.21,0,1.59,4.35-1.91.52.85.16,1.59-.39.8.07,2.08-.31,2.78-.71,1.29-1.37.03-1.31-1.2-.51-.16-1.37,1.72-1.77,1.19-.74-.99,1.57-2.25,1.78-2.77.25-.63.21-2.93.51-3.15.09-.07.91-.06.95-.02Z"/>
            <path class="cls-4" d="M135.22,253.04v1.98c.08.12,2.25-2.28,1.94-.6-.24,1.31-1.69,1.49-1.87,1.87-.34.72.3,3.51-1.36,3.48v-1.98c-.13-.21-1.65,1.57-1.94,1.19-.81-1.07,1.79-2.26,1.87-2.45.37-.82-.51-3.47,1.36-3.49Z"/>
            <path class="cls-4" d="M211.54,319.57c.09.11-.06,1.21,0,1.59l1.78-1.18c.79,1.47-1.29,2.07-1.62,2.77-.38.81.15,3.13-1.29,3.17-.34,0-.1-1.19-.17-1.59-.26-.36-1.5,1.28-1.94.79-.58-.65,1.65-2.11,1.77-2.38.28-.62.2-2.91.51-3.15.09-.07.91-.06.95-.02Z"/>
            <path class="cls-4" d="M178.55,308.48c.09.11-.06,1.21,0,1.59.32.46,2.2-2.39,1.94-.59-.2,1.38-1.48,1.54-1.78,2.17-.39.8.07,2.08-.31,2.78-.64,1.18-1.54.17-1.14-1.2l-1.94.79c.67-2.43,3-2.09,2.26-5.54.26.05.91-.07.97,0Z"/>
            <path class="cls-4" d="M178.55,413.03v1.98c.14.22,2.2-2.25,1.95-.59-.18,1.16-1.45,1.25-1.78,2.18-.4,1.11.18,3.11-1.46,3.16v-1.98c-.09-.14-1.6,1.63-1.94,1.19-.81-1.06,1.88-2.31,2.1-2.77.48-1.01-.41-3.21,1.13-3.17Z"/>
            <path class="cls-4" d="M96.74,504.11v1.98c.38-.1,2.5-2.65,2.27-.99-.19,1.35-1.74,1.56-2.1,2.57s.22,2.85-1.13,2.77v-1.98c-.11-.18-1.94,2.01-2.26,1.58-.71-.95,1.82-2.37,2.09-3.17.36-1.05-.21-2.83,1.14-2.76Z"/>
            <path class="cls-4" d="M211.54,194.83v1.58s1.78-1.18,1.78-1.18c.95,1.91-1.17,1.83-1.62,2.77-.48,1.01.4,3.23-1.13,3.16v-1.98c-.1-.15-1.84,1.68-2.26,1.19-.58-.66,1.65-2.1,1.78-2.37.44-.93-.24-3.16,1.45-3.17Z"/>
            <path class="cls-4" d="M178.55,223.34v1.98c.08.12,2.18-2.27,1.95-.59-.18,1.33-1.47,1.35-1.79,2.17-.37.96.25,2.87-1.13,2.78l-.17-1.59c-.5-.04-1.73,1.66-2.1,1.19-.7-.91,1.84-2.44,2.09-3.17.36-1.05-.21-2.83,1.14-2.76Z"/>
            <path class="cls-4" d="M325.69,75.24v1.98c.38-.1,2.5-2.65,2.27-.99-.19,1.35-1.74,1.56-2.1,2.57s.22,2.85-1.13,2.77v-1.98s-2.26,1.58-2.26,1.58c-.19-1.67,1.71-2.04,2.09-3.17.36-1.04-.21-2.83,1.14-2.76Z"/>
            <path class="cls-4" d="M325.69,199.98v1.98c.2.33,2.52-2.8,2.27-.99-.21,1.53-3.28,2.22-2.27,5.34-1.26.23-.99-.22-.97-1.58l-2.26,1.18c-.27-1.73,1.72-1.99,2.1-2.77.48-1-.41-3.21,1.13-3.17Z"/>
            <path class="cls-4" d="M325.69,95.44v1.98c.2.33,2.52-2.8,2.27-.99-.19,1.35-1.74,1.56-2.1,2.57s.22,2.85-1.13,2.77v-1.98s-2.26,1.58-2.26,1.58c-.35-1.64,2.02-2.47,2.2-2.85.37-.8-.53-3.17,1.03-3.09Z"/>
            <path class="cls-4" d="M96.74,276.01c.19.27,2.83-2.25,2.26-.6-.3.88-1.87,1.71-2.1,2.18-.43.89.32,3.62-1.13,2.97v-1.78c-.09-.15-1.86,1.69-2.26,1.19-.8-1.02,1.83-2.05,2.1-2.77.53-1.36-.53-2.8,1.13-3.17v1.98Z"/>
            <path class="cls-4" d="M325.69,390.06v1.98c.14.19,2.83-2.34,2.26-.6-.28.86-1.86,1.54-2.1,2.18-.43,1.12.37,3.22-1.13,3.17v-1.98s-2.26,1.18-2.26,1.18c-.27-1.73,1.72-1.99,2.1-2.77.48-1-.41-3.21,1.13-3.17Z"/>
            <path class="cls-4" d="M281.07,230.86c.09.11-.06,1.21,0,1.59.17.24,2.52-2,1.95.2-.07.26-1.76,1.21-1.88,1.47-.29.64.18,1.97-.22,2.7-.65,1.18-1.53.17-1.14-1.2-.52-.28-1.28,1.23-1.61.79-.76-1.01,1.68-2.24,1.88-3.04s.01-1.7.06-2.5c.26.05.91-.07.97,0Z"/>
            <path class="cls-4" d="M325.69,115.24v1.98c.2.33,2.52-2.8,2.27-.99-.19,1.35-1.74,1.56-2.1,2.57s.22,2.85-1.13,2.77l-.17-1.59-2.1,1.19c-.27-1.73,1.72-1.99,2.1-2.77.48-1-.41-3.21,1.13-3.17Z"/>
            <path class="cls-4" d="M325.69,305.32v1.58c.23.32,2.58-2.44,2.26-.6-.23,1.31-1.75,1.47-2.1,2.19-.48,1.01.4,3.23-1.13,3.17v-1.98c-5.27,3.15-.41-.93-.16-1.58.38-.98-.26-2.85,1.13-2.78Z"/>
            <path class="cls-4" d="M96.74,524.3v1.98c.33-.1,2.57-2.64,2.26-1-.24,1.27-1.98,1.82-2.19,2.27-.38.83.52,3.18-1.04,3.08v-1.98c-.11-.18-1.94,2.01-2.26,1.58-.76-1.02,1.84-2.45,2.1-3.17.37-1.02-.23-2.84,1.13-2.77Z"/>
            <path class="cls-4" d="M325.69,409.86v1.98c.38.54,1.6-1.98,2.27-.98-.96,2.23-2.92,2.02-2.27,5.34-1.26.23-.99-.22-.97-1.59-5.26,3.15-.4-.93-.15-1.58.43-1.1-.37-3.2,1.13-3.17Z"/>
            <path class="cls-4" d="M325.69,220.18v1.98c.38-.1,2.5-2.65,2.27-.99-.19,1.35-1.74,1.56-2.1,2.57s.22,2.85-1.13,2.77v-1.98c-.09-.14-1.6,1.63-1.94,1.19-.71-.93,1.53-2.1,1.77-2.77.37-1.02-.23-2.84,1.13-2.77Z"/>
            <path class="cls-4" d="M96.74,314.42c.09.11-.06,1.21,0,1.59.19.27,2.83-2.25,2.26-.6-.3.88-1.87,1.71-2.1,2.18-.49,1,.41,3.23-1.13,3.17v-1.98c-1.06,1.11-3.46,1.93-1.62-.21,1.25-1.46,2.02-1.19,1.62-4.15.26.05.91-.07.97,0Z"/>
            <path class="cls-4" d="M325.7,182.16c.19.27,2.83-2.25,2.26-.6-.3.88-1.87,1.71-2.1,2.18-.43.89.32,3.62-1.13,2.97v-1.78c-.35-.48-1.67,1.86-2.26,1.18s1.94-2.34,2.1-2.76c.53-1.35-.53-2.8,1.12-3.17v1.98Z"/>
            <path class="cls-4" d="M135.22,357.59v1.58c3.84-1.1.14,1.32-.11,2.07-.29.85-.21,1.79-.22,2.68-1.26.23-.99-.22-.97-1.59-.12-.21-1.65,1.57-1.94,1.19-.75-.99,1.58-2.26,1.78-2.77.41-1.05-.22-3.14,1.45-3.17Z"/>
            <path class="cls-4" d="M325.69,285.12v1.98c5.1-3.05.38,1.02.16,1.58-.37.96.25,2.87-1.13,2.78l-.17-1.59-2.1,1.19c-.27-1.73,1.72-1.99,2.1-2.77.48-1-.41-3.21,1.13-3.17Z"/>
            <path class="cls-4" d="M134.9,463.32v1.98c.33.47,2.19-2.39,1.95-.59-.17,1.26-1.16,1.15-1.46,1.78s-.19,2.91-.51,3.15c-.91.68-1.14-.54-.95-1.56-.62-.33-1.53,1.73-1.94,1.18-.75-.99,1.59-2.26,1.78-2.76.43-1.1-.37-3.2,1.13-3.17Z"/>
            <path class="cls-4" d="M325.7,432.03c.09.15,3.15-3.07,2.25-.61-.23.62-2.04,1.58-2.18,1.88-.33.72.44,3.56-1.04,2.89v-1.78c-.08-.14-1.59,1.63-1.94,1.19-.73-.95,1.66-2.11,1.87-3.05.32-1.38-.54-2.49,1.03-2.89v2.38Z"/>
            <path class="cls-4" d="M178.55,537.77v1.98c.33.47,2.2-2.39,1.95-.59-.18,1.33-1.47,1.36-1.79,2.17-.43,1.12.37,3.22-1.13,3.17v-1.98c-.35-.48-1.68,1.86-2.26,1.18s1.94-2.34,2.11-2.76c.43-1.1-.37-3.2,1.13-3.17Z"/>
            <path class="cls-4" d="M96.74,609.04v1.98c.08.12,2.2-2.27,1.95-.59-.2,1.29-1.68,1.44-1.88,1.86-.37.81.53,3.19-1.03,3.09v-1.98c-.11-.18-1.94,2.01-2.26,1.58-.76-1.02,1.84-2.45,2.1-3.17.37-1.02-.23-2.84,1.13-2.77Z"/>
            <path class="cls-4" d="M325.69,325.12v1.98c.38.54,1.6-1.98,2.27-.98-.96,2.23-2.92,2.02-2.27,5.34-1.26.23-.99-.22-.97-1.58l-2.26,1.18c-.58-.69,1.97-2.5,2.1-2.77.48-1-.41-3.22,1.13-3.17Z"/>
            <path class="cls-4" d="M178.55,453.02v1.98c.15.23,2.18-2.26,1.95-.59-.2,1.46-2.88,1.94-1.95,4.95-1.26.23-.99-.22-.97-1.58l-2.26,1.18c-.59-.68,1.98-2.51,2.1-2.77.48-1-.41-3.22,1.13-3.17Z"/>
            <path class="cls-4" d="M96.74,589.24v1.98c.33-.1,2.56-2.64,2.26-1-.25,1.33-1.75,1.47-2.1,2.19-.48,1.01.4,3.23-1.13,3.17v-1.98c-.53-.02-1.94,2.01-2.26,1.58-.76-1.02,1.84-2.45,2.1-3.17.37-1.02-.23-2.84,1.13-2.77Z"/>
            <path class="cls-4" d="M178.55,203.15v1.98c.14.22,2.2-2.25,1.95-.59-.18,1.16-1.45,1.25-1.78,2.18-.37,1.04.22,2.85-1.13,2.77l-.17-1.59c-.55-.17-1.77,1.62-2.1,1.19-.71-.93,1.82-2.38,2.09-3.17.36-1.05-.21-2.83,1.14-2.76Z"/>
            <path class="cls-4" d="M178.55,433.22c.09.11-.06,1.21,0,1.59.32.46,2.2-2.39,1.94-.59-.2,1.38-1.48,1.54-1.78,2.17-.49,1,.41,3.23-1.13,3.17v-1.98c-1.06,1.11-3.46,1.93-1.62-.21,1.25-1.46,2.02-1.19,1.62-4.15.26.05.91-.07.97,0Z"/>
            <path class="cls-4" d="M178.55,517.97v1.98c.33.47,2.2-2.39,1.95-.59-.18,1.33-1.47,1.36-1.79,2.17-.43,1.12.37,3.22-1.13,3.17v-1.98c-.32-.44-1.86,1.66-2.26,1.18-.59-.7,1.93-2.32,2.11-2.76.43-1.1-.37-3.2,1.13-3.17Z"/>
            <path class="cls-4" d="M178.55,243.14v1.98c.14.22,2.2-2.25,1.95-.59-.18,1.16-1.45,1.25-1.78,2.18-.37,1.04.22,2.85-1.13,2.77l-.17-1.59c-.5-.04-1.73,1.66-2.1,1.19-.81-1.05,1.88-2.31,2.1-2.77.48-1.01-.41-3.21,1.13-3.17Z"/>
            <path class="cls-4" d="M178.55,327.89v1.98c.14.22,2.2-2.25,1.95-.59-.19,1.25-2.92,2.07-1.95,4.95-1.26.23-.99-.22-.97-1.59-.63-.32-1.92,1.63-2.26,1.19-.81-1.06,1.88-2.31,2.1-2.77.48-1.01-.41-3.21,1.13-3.17Z"/>
            <path class="cls-4" d="M96.74,399.17v1.58c.19.27,2.84-2.25,2.26-.6-.3.88-1.87,1.71-2.1,2.18-.49,1,.41,3.23-1.13,3.17v-1.98c-5.17,3.08-.45-.78-.17-1.59.37-1.02-.23-2.84,1.13-2.77Z"/>
            <path class="cls-4" d="M96.74,484.31v1.98c.08.13,2.59-2.56,1.95-.2-.05.17-1.5.98-1.78,1.79-.36,1.06.21,2.84-1.14,2.76v-1.98c-.53-.02-1.94,2.01-2.26,1.58-.76-1.02,1.84-2.45,2.1-3.17.37-1.02-.23-2.84,1.13-2.77Z"/>
            <path class="cls-4" d="M96.74,418.97v1.98c.32.46,2.21-2.39,1.95-.59-.2,1.41-1.69,1.65-1.89,2.43-.34,1.3.6,2.52-1.02,2.91v-1.98c-.32-.44-1.86,1.66-2.27,1.18-.59-.7,1.93-2.32,2.11-2.76.43-1.1-.37-3.2,1.13-3.17Z"/>
            <path class="cls-4" d="M96.74,294.62v1.58s1.78-1.18,1.78-1.18c.79,1.47-1.28,2.06-1.62,2.77-.49,1,.41,3.23-1.13,3.17v-1.98c-5.27,3.15-.41-.93-.16-1.58.38-.98-.26-2.85,1.13-2.78Z"/>
            <path class="cls-4" d="M178.55,348.08v1.98c.08.12,2.2-2.27,1.95-.59-.2,1.29-1.68,1.44-1.88,1.86-.37.81.53,3.19-1.03,3.09v-1.98c-.11-.18-1.94,2.01-2.26,1.58-.8-1.06,2.06-2.56,2.19-2.85.38-.82-.53-3.16,1.04-3.09Z"/>
            <path class="cls-4" d="M96.74,628.84v1.98c.33.47,2.2-2.39,1.95-.59-.2,1.46-2.88,1.94-1.95,4.95-1.26.23-.99-.22-.97-1.58-.31-.44-1.86,1.66-2.26,1.18-.59-.7,1.93-2.32,2.11-2.76.43-1.1-.37-3.2,1.13-3.17Z"/>
            <path class="cls-4" d="M178.55,557.96v1.98c.09.14,2.56-2.47,1.95-.2-.07.26-1.76,1.21-1.88,1.47-.38.83.52,3.18-1.04,3.08v-1.98c-.53-.02-1.94,2.01-2.26,1.58-.8-1.06,2.06-2.56,2.19-2.85.38-.82-.53-3.16,1.04-3.09Z"/>
            <path class="cls-4" d="M134.9,568.26v1.58c.33.47,2.2-2.39,1.95-.59-.2,1.46-2.88,1.94-1.95,4.95-1.26.23-.99-.22-.97-1.58-.26-.36-1.5,1.28-1.94.79-.58-.66,1.65-2.11,1.78-2.37.42-.89-.29-2.86,1.13-2.77Z"/>
            <path class="cls-4" d="M344.77,441.14c.31,2.92-.45,2.98-2.58,2.77-.49-.53,2.36-3.08,2.58-2.77Z"/>
            <path class="cls-4" d="M334.43,451.83c-.29-1.93.59-2.87,1.93-3.56.27.39-1.33,3.37-1.93,3.56Z"/>
            <path class="cls-1" d="M82.84,357.58v9.7c0,.27-2.46,3.16-3.23,2.57v-9.31c0-.8,2.35-3.31,3.23-2.97Z"/>
            <path class="cls-1" d="M226.74,232.85v9.31c0,.25-2.81,3.53-3.23,2.97.35-4.2-1.84-11.96,3.23-12.27Z"/>
            <path class="cls-1" d="M82.84,252.25v9.7c0,.42-2.5,2.74-3.23,2.18v-8.91c0-.74,2.27-3.46,3.23-2.97Z"/>
            <path class="cls-1" d="M179.85,283.14v-10.69c.58.05,3.23-3.18,3.23-1.39v8.71c0,.97-2.43,3-3.23,3.37Z"/>
            <path class="cls-1" d="M183.08,165.13v8.91c0,.62-2.35,3.62-3.23,3.37v-10.1c0-.35,2.59-2.57,3.23-2.18Z"/>
            <path class="cls-1" d="M226.74,442.72v9.31c0,.8-2.35,3.31-3.23,2.97v-9.7c0-.83,2.37-2.86,3.23-2.57Z"/>
            <path class="cls-1" d="M183.08,585.68v9.31c0,.85-2.57,2.81-3.23,3.37v-10.49c0-.23,2.67-2.46,3.23-2.18Z"/>
            <path class="cls-1" d="M183.08,480.74v9.31c0,.7-2.5,3.09-3.23,2.97v-10.1c0-.23,2.62-2.59,3.23-2.18Z"/>
            <path class="cls-1" d="M82.84,567.46v9.7c0,.89-2.29,3.05-3.23,2.57v-9.31c0-.57,2.4-3.17,3.23-2.97Z"/>
            <path class="cls-1" d="M183.08,376.2v8.91c0,.97-2.43,3-3.23,3.37v-10.1c0-.42,2.5-2.74,3.23-2.18Z"/>
            <path class="cls-1" d="M79.6,675.37c.13-.58,2.8-3.12,3.23-2.58.39,3.27,0,6.58-.16,9.9-.8,1.04-1.81,2.18-3.07,1.98.36-2.44-.49-7.19,0-9.31Z"/>
            <path class="cls-1" d="M226.74,127.11v9.31c0,.8-2.35,3.31-3.23,2.97v-9.7c0-.27,2.46-3.16,3.23-2.57Z"/>
            <path class="cls-1" d="M82.84,462.92v9.7c0,.27-2.46,3.16-3.23,2.57v-9.31c0-.88,2.44-3.04,3.23-2.97Z"/>
            <path class="cls-1" d="M226.74,547.66v9.31c0,.78-2.05,2.82-2.76,2.97-.76.16-.78-1.52-.82-2.16-.23-4.14-.62-9.18,3.57-10.12Z"/>
            <path class="cls-1" d="M226.74,337.79v9.7c0,.4-3.56,4.4-3.56,2.38v-8.32c0-1.39,2.38-3.63,3.56-3.76Z"/>
            <path class="cls-1" d="M329.25,152.66c-.21,1.45-2.38,3.36-3.56,3.76v-10.49c0-.26,3.56-3.35,3.56-1.58,0,2.3.29,6.29,0,8.32Z"/>
            <path class="cls-1" d="M325.69,261.75v-10.1c0-.97,3.56-3.63,3.56-1.98v8.32c0,.71-2.64,3.81-3.56,3.76Z"/>
            <path class="cls-1" d="M325.69,50.69v-10.1c0-.48,3.56-3.71,3.56-1.98v8.71c0,.75-2.65,3.65-3.56,3.37Z"/>
            <path class="cls-1" d="M325.69,366.3v-10.1c0-.58,3.56-3.88,3.56-1.98v8.71c0,.89-2.62,3.4-3.56,3.37Z"/>
            <path class="cls-1" d="M325.69,471.24v-10.1c0-.54,3.56-3.32,3.56-1.58v8.32c0,.75-2.65,3.65-3.56,3.37Z"/>
          </g>
        </g>
      </g>
    </g>
  </g>
</svg>